<?xml version="1.0" encoding="utf-8"?>
<!-- Generator: Adobe Illustrator 23.0.4, SVG Export Plug-In . SVG Version: 6.00 Build 0)  -->
<svg version="1.1" id="Layer_1" xmlns="http://www.w3.org/2000/svg" xmlns:xlink="http://www.w3.org/1999/xlink" x="0px" y="0px"
	 viewBox="0 0 600 300" style="enable-background:new 0 0 600 300;" xml:space="preserve">
<style type="text/css">
	.st0{clip-path:url(#SVGID_2_);fill:#EDEDED;}
	.st1{clip-path:url(#SVGID_2_);}
	.st2{opacity:0;fill:#FFFFFF;}
	.st3{opacity:0.0196;fill:#FEFEFE;}
	.st4{opacity:0.0392;fill:#FCFCFC;}
	.st5{opacity:0.0588;fill:#FBFBFB;}
	.st6{opacity:0.0784;fill:#F9F9F9;}
	.st7{opacity:0.098;fill:#F8F8F8;}
	.st8{opacity:0.1176;fill:#F7F7F7;}
	.st9{opacity:0.1373;fill:#F5F5F5;}
	.st10{opacity:0.1569;fill:#F4F4F4;}
	.st11{opacity:0.1765;fill:#F2F2F2;}
	.st12{opacity:0.1961;fill:#F1F1F1;}
	.st13{opacity:0.2157;fill:#EFEFEF;}
	.st14{opacity:0.2353;fill:#EEEEEE;}
	.st15{opacity:0.2549;fill:#EDEDED;}
	.st16{opacity:0.2745;fill:#EBEBEB;}
	.st17{opacity:0.2941;fill:#EAEAEA;}
	.st18{opacity:0.3137;fill:#E8E8E8;}
	.st19{opacity:0.3333;fill:#E7E7E7;}
	.st20{opacity:0.3529;fill:#E6E6E6;}
	.st21{opacity:0.3725;fill:#E4E4E4;}
	.st22{opacity:0.3922;fill:#E3E3E3;}
	.st23{opacity:0.4118;fill:#E1E1E1;}
	.st24{opacity:0.4314;fill:#E0E0E0;}
	.st25{opacity:0.451;fill:#DFDFDF;}
	.st26{opacity:0.4706;fill:#DDDDDD;}
	.st27{opacity:0.4902;fill:#DCDCDC;}
	.st28{opacity:0.5098;fill:#DADADA;}
	.st29{opacity:0.5294;fill:#D9D9D9;}
	.st30{opacity:0.549;fill:#D7D7D7;}
	.st31{opacity:0.5686;fill:#D6D6D6;}
	.st32{opacity:0.5882;fill:#D5D5D5;}
	.st33{opacity:0.6078;fill:#D3D3D3;}
	.st34{opacity:0.6275;fill:#D2D2D2;}
	.st35{opacity:0.6471;fill:#D0D0D0;}
	.st36{opacity:0.6667;fill:#CFCFCF;}
	.st37{opacity:0.6863;fill:#CECECE;}
	.st38{opacity:0.7059;fill:#CCCCCC;}
	.st39{opacity:0.7255;fill:#CBCBCB;}
	.st40{opacity:0.7451;fill:#C9C9C9;}
	.st41{opacity:0.7647;fill:#C8C8C8;}
	.st42{opacity:0.7843;fill:#C7C7C7;}
	.st43{opacity:0.8039;fill:#C5C5C5;}
	.st44{opacity:0.8235;fill:#C4C4C4;}
	.st45{opacity:0.8431;fill:#C2C2C2;}
	.st46{opacity:0.8627;fill:#C1C1C1;}
	.st47{opacity:0.8824;fill:#BFBFBF;}
	.st48{opacity:0.902;fill:#BEBEBE;}
	.st49{opacity:0.9216;fill:#BDBDBD;}
	.st50{opacity:0.9412;fill:#BBBBBB;}
	.st51{opacity:0.9608;fill:#BABABA;}
	.st52{opacity:0.9804;fill:#B8B8B8;}
	.st53{fill:#B7B7B7;}
	.st54{fill:#FEFEFE;}
	.st55{fill:url(#SVGID_3_);}
	.st56{fill:url(#SVGID_4_);}
	.st57{fill:#F2F2F2;}
	.st58{fill:url(#SVGID_5_);}
	.st59{fill:#FFFFFF;}
	.st60{opacity:0.85;fill:url(#SVGID_6_);}
	.st61{opacity:0.65;fill:url(#SVGID_7_);}
	.st62{fill:url(#SVGID_8_);}
	.st63{fill:url(#SVGID_9_);}
	.st64{fill:#DDDDDD;}
	.st65{fill:url(#SVGID_10_);}
	.st66{fill:#008FF9;}
	.st67{fill:#FDF7FB;}
	.st68{opacity:0.2;}
	.st69{fill:#FEFEFF;}
	.st70{fill:url(#SVGID_11_);}
	.st71{fill:#EAEAEA;}
	.st72{opacity:0.75;}
	.st73{fill:url(#SVGID_12_);}
	.st74{fill:url(#SVGID_13_);}
	.st75{fill:url(#SVGID_14_);}
	.st76{fill:url(#SVGID_15_);}
	.st77{fill:url(#SVGID_16_);}
	.st78{fill:url(#SVGID_17_);}
	.st79{opacity:0.0323;fill:#FDFDFD;}
	.st80{opacity:0.0645;fill:#FAFAFA;}
	.st81{opacity:0.0968;fill:#F8F8F8;}
	.st82{opacity:0.129;fill:#F6F6F6;}
	.st83{opacity:0.1613;fill:#F3F3F3;}
	.st84{opacity:0.1935;fill:#F1F1F1;}
	.st85{opacity:0.2258;fill:#EFEFEF;}
	.st86{opacity:0.2581;fill:#ECECEC;}
	.st87{opacity:0.2903;fill:#EAEAEA;}
	.st88{opacity:0.3226;fill:#E8E8E8;}
	.st89{opacity:0.3548;fill:#E5E5E5;}
	.st90{opacity:0.3871;fill:#E3E3E3;}
	.st91{opacity:0.4194;fill:#E1E1E1;}
	.st92{opacity:0.4516;fill:#DEDEDE;}
	.st93{opacity:0.4839;fill:#DCDCDC;}
	.st94{opacity:0.5161;fill:#DADADA;}
	.st95{opacity:0.5484;fill:#D8D8D8;}
	.st96{opacity:0.5806;fill:#D5D5D5;}
	.st97{opacity:0.6129;fill:#D3D3D3;}
	.st98{opacity:0.6452;fill:#D1D1D1;}
	.st99{opacity:0.6774;fill:#CECECE;}
	.st100{opacity:0.7097;fill:#CCCCCC;}
	.st101{opacity:0.7419;fill:#CACACA;}
	.st102{opacity:0.7742;fill:#C7C7C7;}
	.st103{opacity:0.8065;fill:#C5C5C5;}
	.st104{opacity:0.8387;fill:#C3C3C3;}
	.st105{opacity:0.871;fill:#C0C0C0;}
	.st106{opacity:0.9032;fill:#BEBEBE;}
	.st107{opacity:0.9355;fill:#BCBCBC;}
	.st108{opacity:0.9677;fill:#B9B9B9;}
	.st109{enable-background:new    ;}
	.st110{fill:url(#SVGID_18_);}
	.st111{fill:url(#SVGID_19_);}
	.st112{fill:url(#SVGID_20_);}
	.st113{fill:url(#SVGID_21_);}
	.st114{clip-path:url(#SVGID_24_);enable-background:new    ;}
	.st115{fill:url(#SVGID_25_);}
	.st116{fill:url(#SVGID_26_);}
	.st117{clip-path:url(#SVGID_29_);enable-background:new    ;}
	.st118{fill:url(#SVGID_30_);}
	.st119{fill:url(#SVGID_31_);}
	.st120{fill:url(#SVGID_32_);}
	.st121{fill:url(#SVGID_33_);}
	.st122{fill:url(#SVGID_34_);}
	.st123{fill:url(#SVGID_35_);}
	.st124{fill:url(#SVGID_36_);}
	.st125{fill:url(#SVGID_37_);}
	.st126{fill:url(#SVGID_38_);}
	.st127{fill:url(#SVGID_39_);}
	.st128{fill:url(#SVGID_40_);}
	.st129{fill:url(#SVGID_41_);}
	.st130{fill:url(#SVGID_42_);}
	.st131{fill:url(#SVGID_43_);}
</style>
<g>
	<defs>
		<rect id="SVGID_1_" width="600" height="300"/>
	</defs>
	<clipPath id="SVGID_2_">
		<use xlink:href="#SVGID_1_"  style="overflow:visible;"/>
	</clipPath>
	<rect class="st0" width="600" height="300"/>
	<g class="st1">
		<g>
			<g>
				<path class="st2" d="M321.4,273.01l-139.33-63.7c-3.57-2.06-3.12-5.66,1-8.04l81.11-46.83c4.12-2.38,10.36-2.64,13.93-0.58
					l110.33,63.7c3.57,2.06,3.12,5.66-1,8.04l-81.11,46.83C302.21,274.81,324.97,275.07,321.4,273.01z"/>
				<path class="st3" d="M320.84,272.69L182.61,209.3c-3.55-2.05-3.11-5.63,0.99-8l80.63-46.55c4.1-2.37,10.31-2.63,13.86-0.57
					l109.8,63.39c3.55,2.05,3.11,5.63-0.99,8l-80.63,46.55C302.16,274.48,324.39,274.74,320.84,272.69z"/>
				<path class="st4" d="M320.28,272.37l-137.12-63.08c-3.53-2.04-3.09-5.6,0.99-7.96l80.15-46.28c4.08-2.36,10.25-2.61,13.78-0.57
					l109.26,63.08c3.53,2.04,3.09,5.6-0.99,7.96L306.2,271.8C302.12,274.16,323.81,274.41,320.28,272.37z"/>
				<path class="st5" d="M319.72,272.06l-136.01-62.77c-3.51-2.03-3.07-5.57,0.98-7.91l79.67-46c4.06-2.34,10.19-2.6,13.71-0.57
					l108.72,62.77c3.51,2.03,3.07,5.57-0.98,7.91l-79.67,46C302.08,273.83,323.24,274.09,319.72,272.06z"/>
				<path class="st6" d="M319.16,271.74l-134.91-62.46c-3.49-2.02-3.06-5.54,0.98-7.87l79.2-45.72c4.04-2.33,10.14-2.58,13.63-0.57
					l108.18,62.46c3.49,2.02,3.06,5.54-0.98,7.87l-79.2,45.72C302.04,273.5,322.66,273.76,319.16,271.74z"/>
				<path class="st7" d="M318.6,271.42l-133.8-62.15c-3.48-2.01-3.04-5.51,0.97-7.83L264.5,156c4.01-2.32,10.08-2.57,13.56-0.56
					l107.64,62.15c3.48,2.01,3.04,5.51-0.97,7.83l-78.72,45.45C301.99,273.18,322.08,273.43,318.6,271.42z"/>
				<path class="st8" d="M318.05,271.11l-132.69-61.84c-3.46-2-3.02-5.48,0.97-7.78l78.24-45.17c3.99-2.3,10.03-2.55,13.48-0.56
					l107.1,61.84c3.46,2,3.02,5.48-0.97,7.78l-78.24,45.17C301.95,272.85,321.5,273.1,318.05,271.11z"/>
				<path class="st9" d="M317.49,270.79L185.9,209.26c-3.44-1.98-3.01-5.45,0.96-7.74l77.76-44.89c3.97-2.29,9.97-2.54,13.41-0.56
					L384.6,217.6c3.44,1.98,3.01,5.45-0.96,7.74l-77.76,44.89C301.91,272.53,320.93,272.77,317.49,270.79z"/>
				<path class="st10" d="M316.93,270.47l-130.48-61.22c-3.42-1.97-2.99-5.42,0.96-7.7l77.28-44.62c3.95-2.28,9.92-2.53,13.33-0.55
					l106.03,61.22c3.42,1.97,2.99,5.42-0.96,7.7l-77.28,44.62C301.87,272.2,320.35,272.45,316.93,270.47z"/>
				<path class="st11" d="M316.37,270.16L187,209.25c-3.4-1.96-2.97-5.39,0.95-7.65l76.8-44.34c3.92-2.27,9.86-2.51,13.26-0.55
					l105.49,60.91c3.4,1.96,2.97,5.39-0.95,7.65l-76.8,44.34C301.82,271.87,319.77,272.12,316.37,270.16z"/>
				<path class="st12" d="M315.81,269.84l-128.27-60.59c-3.38-1.95-2.96-5.36,0.95-7.61l76.33-44.07c3.9-2.25,9.8-2.5,13.18-0.55
					l104.95,60.59c3.38,1.95,2.96,5.36-0.95,7.61l-76.32,44.07C301.78,271.55,319.19,271.79,315.81,269.84z"/>
				<path class="st13" d="M315.26,269.52L188.1,209.24c-3.36-1.94-2.94-5.33,0.94-7.57l75.85-43.79c3.88-2.24,9.75-2.48,13.11-0.54
					l104.41,60.28c3.36,1.94,2.94,5.33-0.94,7.57l-75.85,43.79C301.74,271.22,318.61,271.46,315.26,269.52z"/>
				<path class="st14" d="M314.7,269.21l-126.05-59.97c-3.34-1.93-2.92-5.3,0.94-7.53l75.37-43.51c3.86-2.23,9.69-2.47,13.03-0.54
					l103.88,59.97c3.34,1.93,2.92,5.3-0.94,7.52l-75.37,43.51C301.7,270.89,318.04,271.14,314.7,269.21z"/>
				<path class="st15" d="M314.14,268.89l-124.95-59.66c-3.32-1.92-2.91-5.27,0.93-7.48l74.89-43.24c3.84-2.21,9.64-2.45,12.96-0.54
					l103.34,59.66c3.32,1.92,2.9,5.27-0.93,7.48l-74.89,43.24C301.65,270.57,317.46,270.81,314.14,268.89z"/>
				<path class="st16" d="M313.58,268.57l-123.84-59.35c-3.3-1.91-2.89-5.24,0.92-7.44l74.41-42.96c3.81-2.2,9.58-2.44,12.88-0.53
					l102.8,59.35c3.3,1.91,2.89,5.24-0.93,7.44l-74.41,42.96C301.61,270.24,316.88,270.48,313.58,268.57z"/>
				<path class="st17" d="M313.02,268.26l-122.73-59.04c-3.28-1.9-2.87-5.21,0.92-7.4l73.93-42.69c3.79-2.19,9.53-2.43,12.81-0.53
					l102.26,59.04c3.28,1.9,2.87,5.21-0.92,7.4l-73.93,42.69C301.57,269.92,316.3,270.15,313.02,268.26z"/>
				<path class="st18" d="M312.46,267.94l-121.63-58.73c-3.26-1.88-2.85-5.18,0.91-7.35l73.45-42.41c3.77-2.18,9.47-2.41,12.73-0.53
					l101.72,58.73c3.26,1.88,2.85,5.18-0.91,7.35l-73.45,42.41C301.53,269.59,315.73,269.83,312.46,267.94z"/>
				<path class="st19" d="M311.91,267.62L191.39,209.2c-3.24-1.87-2.84-5.15,0.91-7.31l72.98-42.13c3.75-2.16,9.41-2.4,12.66-0.52
					l101.19,58.42c3.24,1.87,2.84,5.15-0.91,7.31l-72.98,42.13C301.48,269.26,315.15,269.5,311.91,267.62z"/>
				<path class="st20" d="M311.35,267.31L191.93,209.2c-3.23-1.86-2.82-5.11,0.9-7.27l72.5-41.86c3.72-2.15,9.36-2.38,12.58-0.52
					l100.65,58.11c3.23,1.86,2.82,5.11-0.9,7.27l-72.5,41.86C301.44,268.94,314.57,269.17,311.35,267.31z"/>
				<path class="st21" d="M310.79,266.99l-118.31-57.8c-3.21-1.85-2.8-5.08,0.9-7.22l72.02-41.58c3.7-2.14,9.3-2.37,12.51-0.52
					l100.11,57.8c3.21,1.85,2.8,5.08-0.9,7.22l-72.02,41.58C301.4,268.61,313.99,268.84,310.79,266.99z"/>
				<path class="st22" d="M310.23,266.67l-117.2-57.49c-3.19-1.84-2.79-5.05,0.89-7.18l71.54-41.3c3.68-2.12,9.25-2.36,12.43-0.52
					l99.57,57.49c3.19,1.84,2.79,5.05-0.89,7.18l-71.54,41.3C301.36,268.28,313.42,268.51,310.23,266.67z"/>
				<path class="st23" d="M309.67,266.36l-116.09-57.18c-3.17-1.83-2.77-5.02,0.89-7.14l71.06-41.03c3.66-2.11,9.19-2.34,12.36-0.51
					l99.03,57.18c3.17,1.83,2.77,5.02-0.89,7.14l-71.06,41.03C301.31,267.96,312.84,268.19,309.67,266.36z"/>
				<path class="st24" d="M309.11,266.04l-114.99-56.87c-3.15-1.82-2.75-4.99,0.88-7.09l70.58-40.75c3.64-2.1,9.14-2.33,12.28-0.51
					l98.5,56.87c3.15,1.82,2.75,4.99-0.88,7.09l-70.58,40.75C301.27,267.63,312.26,267.86,309.11,266.04z"/>
				<path class="st25" d="M308.56,265.72l-113.88-56.56c-3.13-1.81-2.74-4.96,0.88-7.05l70.11-40.48c3.61-2.09,9.08-2.31,12.21-0.51
					l97.96,56.56c3.13,1.81,2.74,4.96-0.88,7.05l-70.11,40.48C301.23,267.3,311.68,267.53,308.56,265.72z"/>
				<path class="st26" d="M308,265.41l-112.77-56.25c-3.11-1.8-2.72-4.93,0.87-7.01l69.63-40.2c3.59-2.07,9.02-2.3,12.13-0.5
					l97.42,56.25c3.11,1.8,2.72,4.93-0.87,7.01l-69.63,40.2C301.19,266.98,311.11,267.2,308,265.41z"/>
				<path class="st27" d="M307.44,265.09l-111.67-55.93c-3.09-1.78-2.7-4.9,0.87-6.96l69.15-39.92c3.57-2.06,8.97-2.28,12.06-0.5
					l96.88,55.93c3.09,1.78,2.7,4.9-0.87,6.96l-69.15,39.92C301.14,266.65,310.53,266.88,307.44,265.09z"/>
				<path class="st28" d="M306.88,264.77l-110.56-55.62c-3.07-1.77-2.69-4.87,0.86-6.92l68.67-39.65c3.55-2.05,8.91-2.27,11.98-0.5
					l96.34,55.62c3.07,1.77,2.69,4.87-0.86,6.92l-68.67,39.65C301.1,266.33,309.95,266.55,306.88,264.77z"/>
				<path class="st29" d="M306.32,264.46l-109.45-55.31c-3.05-1.76-2.67-4.84,0.85-6.88l68.19-39.37c3.52-2.04,8.86-2.26,11.91-0.49
					l95.81,55.31c3.05,1.76,2.67,4.84-0.86,6.88l-68.19,39.37C301.06,266,309.37,266.22,306.32,264.46z"/>
				<path class="st30" d="M305.76,264.14l-108.35-55c-3.03-1.75-2.65-4.81,0.85-6.83l67.71-39.09c3.5-2.02,8.8-2.24,11.83-0.49
					l95.27,55c3.03,1.75,2.65,4.81-0.85,6.83l-67.71,39.1C301.02,265.67,308.8,265.89,305.76,264.14z"/>
				<path class="st31" d="M305.21,263.82l-107.24-54.69c-3.01-1.74-2.64-4.78,0.84-6.79l67.24-38.82c3.48-2.01,8.75-2.23,11.76-0.49
					l94.73,54.69c3.01,1.74,2.64,4.78-0.84,6.79l-67.24,38.82C300.97,265.35,308.22,265.56,305.21,263.82z"/>
				<path class="st32" d="M304.65,263.51l-106.13-54.38c-2.99-1.73-2.62-4.75,0.84-6.75l66.76-38.54c3.46-2,8.69-2.21,11.68-0.48
					l94.19,54.38c2.99,1.73,2.62,4.75-0.84,6.75l-66.76,38.54C300.93,265.02,307.64,265.24,304.65,263.51z"/>
				<path class="st33" d="M304.09,263.19l-105.03-54.07c-2.98-1.72-2.6-4.72,0.83-6.7l66.28-38.27c3.44-1.98,8.63-2.2,11.61-0.48
					l93.65,54.07c2.98,1.72,2.6,4.72-0.83,6.7l-66.28,38.27C300.89,264.69,307.06,264.91,304.09,263.19z"/>
				<path class="st34" d="M303.53,262.87l-103.92-53.76c-2.96-1.71-2.59-4.69,0.83-6.66l65.8-37.99c3.41-1.97,8.58-2.19,11.53-0.48
					l93.11,53.76c2.96,1.71,2.59,4.69-0.83,6.66l-65.8,37.99C300.85,264.37,306.49,264.58,303.53,262.87z"/>
				<path class="st35" d="M302.97,262.56l-102.81-53.45c-2.94-1.7-2.57-4.66,0.82-6.62l65.32-37.71c3.39-1.96,8.52-2.17,11.46-0.48
					l92.58,53.45c2.94,1.7,2.57,4.66-0.82,6.62l-65.32,37.71C300.8,264.04,305.91,264.25,302.97,262.56z"/>
				<path class="st36" d="M302.41,262.24L200.71,209.1c-2.92-1.68-2.55-4.63,0.82-6.57l64.84-37.44c3.37-1.95,8.47-2.16,11.38-0.47
					l92.04,53.14c2.92,1.68,2.55,4.63-0.82,6.57l-64.84,37.44C300.76,263.72,305.33,263.93,302.41,262.24z"/>
				<path class="st37" d="M301.86,261.93l-100.6-52.83c-2.9-1.67-2.54-4.6,0.81-6.53l64.37-37.16c3.35-1.93,8.41-2.14,11.31-0.47
					l91.5,52.83c2.9,1.67,2.54,4.6-0.81,6.53l-64.37,37.16C300.72,263.39,304.75,263.6,301.86,261.93z"/>
				<path class="st38" d="M301.3,261.61l-99.49-52.52c-2.88-1.66-2.52-4.57,0.81-6.49l63.89-36.89c3.33-1.92,8.35-2.13,11.23-0.47
					l90.96,52.52c2.88,1.66,2.52,4.57-0.81,6.49L304,261.14C300.68,263.06,304.18,263.27,301.3,261.61z"/>
				<path class="st39" d="M300.74,261.29l-98.38-52.21c-2.86-1.65-2.5-4.54,0.8-6.44l63.41-36.61c3.3-1.91,8.3-2.11,11.16-0.46
					l90.42,52.21c2.86,1.65,2.5,4.54-0.8,6.44l-63.41,36.61C300.63,262.74,303.6,262.94,300.74,261.29z"/>
				<path class="st40" d="M300.18,260.98l-97.28-51.9c-2.84-1.64-2.48-4.51,0.8-6.4l62.93-36.33c3.28-1.89,8.24-2.1,11.08-0.46
					l89.89,51.9c2.84,1.64,2.48,4.51-0.8,6.4l-62.93,36.33C300.59,262.41,303.02,262.62,300.18,260.98z"/>
				<path class="st41" d="M299.62,260.66l-96.17-51.59c-2.82-1.63-2.47-4.48,0.79-6.36l62.45-36.06c3.26-1.88,8.19-2.09,11.01-0.46
					l89.35,51.59c2.82,1.63,2.47,4.48-0.79,6.36l-62.45,36.06C300.55,262.08,302.44,262.29,299.62,260.66z"/>
				<path class="st42" d="M299.06,260.34L204,209.07c-2.8-1.62-2.45-4.44,0.79-6.31l61.97-35.78c3.24-1.87,8.13-2.07,10.93-0.45
					l88.81,51.27c2.8,1.62,2.45,4.44-0.79,6.31l-61.97,35.78C300.51,261.76,301.87,261.96,299.06,260.34z"/>
				<path class="st43" d="M298.51,260.03l-93.96-50.96c-2.78-1.61-2.43-4.41,0.78-6.27l61.5-35.5c3.21-1.86,8.08-2.06,10.86-0.45
					l88.27,50.96c2.78,1.61,2.43,4.41-0.78,6.27l-61.5,35.5C300.46,261.43,301.29,261.63,298.51,260.03z"/>
				<path class="st44" d="M297.95,259.71l-92.85-50.65c-2.76-1.6-2.42-4.38,0.77-6.23l61.02-35.23c3.19-1.84,8.02-2.04,10.78-0.45
					l87.73,50.65c2.76,1.6,2.42,4.38-0.77,6.23l-61.02,35.23C300.42,261.1,300.71,261.3,297.95,259.71z"/>
				<path class="st45" d="M297.39,259.39l-91.74-50.34c-2.75-1.58-2.4-4.35,0.77-6.18l60.54-34.95c3.17-1.83,7.96-2.03,10.71-0.44
					l87.2,50.34c2.75,1.58,2.4,4.35-0.77,6.18l-60.54,34.95C300.38,260.78,300.13,260.98,297.39,259.39z"/>
				<path class="st46" d="M296.83,259.08l-90.64-50.03c-2.73-1.57-2.38-4.32,0.76-6.14l60.06-34.68c3.15-1.82,7.91-2.01,10.63-0.44
					l86.66,50.03c2.73,1.57,2.38,4.32-0.76,6.14l-60.06,34.68C300.34,260.45,299.56,260.65,296.83,259.08z"/>
				<path class="st47" d="M296.27,258.76l-89.53-49.72c-2.71-1.56-2.37-4.29,0.76-6.1l59.58-34.4c3.13-1.8,7.85-2,10.56-0.44
					l86.12,49.72c2.71,1.56,2.37,4.29-0.76,6.1l-59.58,34.4C300.29,260.13,298.98,260.32,296.27,258.76z"/>
				<path class="st48" d="M295.71,258.44l-88.42-49.41c-2.69-1.55-2.35-4.26,0.75-6.05l59.1-34.12c3.1-1.79,7.8-1.99,10.48-0.43
					l85.58,49.41c2.69,1.55,2.35,4.26-0.75,6.05l-59.1,34.12C300.25,259.8,298.4,259.99,295.71,258.44z"/>
				<path class="st49" d="M295.16,258.13l-87.32-49.1c-2.67-1.54-2.33-4.23,0.75-6.01l58.63-33.85c3.08-1.78,7.74-1.97,10.41-0.43
					l85.04,49.1c2.67,1.54,2.33,4.23-0.75,6.01l-58.63,33.85C300.21,259.47,297.82,259.67,295.16,258.13z"/>
				<path class="st50" d="M294.6,257.81l-86.21-48.79c-2.65-1.53-2.32-4.2,0.74-5.97l58.15-33.57c3.06-1.77,7.69-1.96,10.33-0.43
					l84.51,48.79c2.65,1.53,2.32,4.2-0.74,5.97l-58.15,33.57C300.17,259.15,297.25,259.34,294.6,257.81z"/>
				<path class="st51" d="M294.04,257.49l-85.1-48.48c-2.63-1.52-2.3-4.17,0.74-5.92l57.67-33.3c3.04-1.75,7.63-1.94,10.26-0.43
					l83.97,48.48c2.63,1.52,2.3,4.17-0.74,5.92l-57.67,33.3C300.13,258.82,296.67,259.01,294.04,257.49z"/>
				<path class="st52" d="M293.48,257.18l-84-48.17c-2.61-1.51-2.28-4.14,0.73-5.88l57.19-33.02c3.01-1.74,7.57-1.93,10.18-0.42
					l83.43,48.17c2.61,1.51,2.28,4.14-0.73,5.88l-57.19,33.02C300.08,258.49,296.09,258.68,293.48,257.18z"/>
				<path class="st53" d="M292.92,256.86L210.03,209c-2.59-1.5-2.27-4.11,0.73-5.84l56.71-32.74c2.99-1.73,7.52-1.92,10.11-0.42
					l82.89,47.86c2.59,1.5,2.27,4.11-0.73,5.84l-56.71,32.74C300.04,258.17,295.51,258.36,292.92,256.86z"/>
			</g>
			<g>
				<g>
					<g>
						<path class="st54" d="M362.15,200.49l-97.48-56.28V75.54c0-1.36,0.83-1.99,1.85-1.4l93.78,54.14
							c1.02,0.59,1.85,2.17,1.85,3.54V200.49z"/>
						<g>
							
								<linearGradient id="SVGID_3_" gradientUnits="userSpaceOnUse" x1="717.2459" y1="224.7084" x2="793.8878" y2="96.8473" gradientTransform="matrix(1 0 0 1 -455.3112 0)">
								<stop  offset="0" style="stop-color:#4095DE"/>
								<stop  offset="1" style="stop-color:#19072D"/>
							</linearGradient>
							<path class="st55" d="M362.14,127.18l-93.78-54.14c-0.42-0.24-0.8-0.27-1.11-0.13l-0.01-0.01l-0.16,0.09
								c-0.01,0.01-0.03,0.01-0.04,0.02L265.39,74l0.01,0.01c0.31-0.14,0.7-0.11,1.12,0.13l93.78,54.14
								c1.02,0.59,1.85,2.17,1.85,3.54v68.66l1.85-1.11v-68.66C363.99,129.35,363.16,127.77,362.14,127.18z"/>
						</g>
						
							<linearGradient id="SVGID_4_" gradientUnits="userSpaceOnUse" x1="674.14" y1="339.7975" x2="802.0193" y2="65.2979" gradientTransform="matrix(1 0 0 1 -455.3112 0)">
							<stop  offset="0" style="stop-color:#4095DE"/>
							<stop  offset="1" style="stop-color:#19072D"/>
						</linearGradient>
						<polygon class="st56" points="358.43,194.38 268.38,142.39 268.38,79.18 358.43,131.18 						"/>
					</g>
					<path class="st57" d="M297.85,234.49l-92.09-53.17c-1.49-0.86-1.3-2.36,0.42-3.35l58.49-33.77l97.48,56.28l-58.49,33.77
						C301.94,235.25,299.34,235.35,297.85,234.49z"/>
					
						<linearGradient id="SVGID_5_" gradientUnits="userSpaceOnUse" x1="831.4432" y1="113.9789" x2="623.074" y2="289.0906" gradientTransform="matrix(1 0 0 1 -455.3112 0)">
						<stop  offset="0" style="stop-color:#4095DE"/>
						<stop  offset="1" style="stop-color:#19072D"/>
					</linearGradient>
					<path class="st58" d="M303.66,234.25c-1.72,0.99-4.32,1.1-5.81,0.24l-92.09-53.17c-0.71-0.41-1.02-0.96-0.99-1.54l-0.01,0v0.94
						l0,0v2.58l0.02,0.01c0,0.55,0.31,1.07,0.99,1.46l92.09,53.17c1.49,0.86,4.09,0.75,5.81-0.24l58.49-33.77V203v-1.58v-0.94
						L303.66,234.25z"/>
					<g>
						<g>
							<path class="st59" d="M263.82,154.76l-4.26-2.46c-0.6-0.34-0.6-0.9,0-1.25l4.26-2.46c0.6-0.34,1.56-0.34,2.16,0l4.26,2.46
								c0.6,0.34,0.6,0.9,0,1.25l-4.26,2.46C265.38,155.11,264.42,155.11,263.82,154.76z"/>
							<path class="st59" d="M272.19,159.59l-4.26-2.46c-0.6-0.34-0.6-0.9,0-1.25l4.26-2.46c0.6-0.34,1.56-0.34,2.16,0l4.26,2.46
								c0.6,0.34,0.6,0.9,0,1.25l-4.26,2.46C273.75,159.94,272.78,159.94,272.19,159.59z"/>
							<path class="st59" d="M280.55,164.42l-4.26-2.46c-0.6-0.34-0.6-0.9,0-1.25l4.26-2.46c0.6-0.34,1.56-0.34,2.16,0l4.26,2.46
								c0.6,0.34,0.6,0.9,0,1.25l-4.26,2.46C282.11,164.77,281.15,164.77,280.55,164.42z"/>
							<path class="st59" d="M288.91,169.25l-4.26-2.46c-0.6-0.34-0.6-0.9,0-1.25l4.26-2.46c0.6-0.34,1.56-0.34,2.16,0l4.26,2.46
								c0.6,0.34,0.6,0.9,0,1.25l-4.26,2.46C290.48,169.59,289.51,169.59,288.91,169.25z"/>
							<path class="st59" d="M297.28,174.08l-4.26-2.46c-0.6-0.34-0.6-0.9,0-1.25l4.26-2.46c0.6-0.34,1.56-0.34,2.16,0l4.26,2.46
								c0.6,0.34,0.6,0.9,0,1.25l-4.26,2.46C298.84,174.42,297.87,174.42,297.28,174.08z"/>
							<path class="st59" d="M305.64,178.91l-4.26-2.46c-0.6-0.34-0.6-0.9,0-1.25l4.26-2.46c0.6-0.34,1.56-0.34,2.16,0l4.26,2.46
								c0.6,0.34,0.6,0.9,0,1.25l-4.26,2.46C307.2,179.25,306.24,179.25,305.64,178.91z"/>
							<path class="st59" d="M314.01,183.74l-4.26-2.46c-0.6-0.34-0.6-0.9,0-1.25l4.26-2.46c0.6-0.34,1.56-0.34,2.16,0l4.26,2.46
								c0.6,0.34,0.6,0.9,0,1.25l-4.26,2.46C315.57,184.08,314.6,184.08,314.01,183.74z"/>
							<path class="st59" d="M322.37,188.57l-4.26-2.46c-0.6-0.34-0.6-0.9,0-1.25l4.26-2.46c0.6-0.34,1.56-0.34,2.16,0l4.26,2.46
								c0.6,0.34,0.6,0.9,0,1.25l-4.26,2.46C323.93,188.91,322.96,188.91,322.37,188.57z"/>
							<path class="st59" d="M330.73,193.39l-4.26-2.46c-0.6-0.34-0.6-0.9,0-1.25l4.26-2.46c0.6-0.34,1.56-0.34,2.16,0l4.26,2.46
								c0.6,0.34,0.6,0.9,0,1.25l-4.26,2.46C332.29,193.74,331.33,193.74,330.73,193.39z"/>
							<path class="st59" d="M339.1,198.22l-4.26-2.46c-0.6-0.34-0.6-0.9,0-1.25l4.26-2.46c0.6-0.34,1.56-0.34,2.16,0l4.26,2.46
								c0.6,0.34,0.6,0.9,0,1.25l-4.26,2.46C340.66,198.57,339.69,198.57,339.1,198.22z"/>
							<path class="st59" d="M347.46,203.05l-4.26-2.46c-0.6-0.34-0.6-0.9,0-1.25l4.26-2.46c0.6-0.34,1.56-0.34,2.16,0l4.26,2.46
								c0.6,0.34,0.6,0.9,0,1.25l-4.26,2.46C349.02,203.4,348.06,203.4,347.46,203.05z"/>
							<path class="st59" d="M255.68,159.54l-4.4-2.54c-0.56-0.32-0.56-0.84,0-1.17l4.4-2.54c0.56-0.32,1.46-0.32,2.02,0l4.4,2.54
								c0.56,0.32,0.56,0.84,0,1.17l-4.4,2.54C257.14,159.87,256.24,159.87,255.68,159.54z"/>
							<path class="st59" d="M264.05,164.37l-4.4-2.54c-0.56-0.32-0.56-0.84,0-1.17l4.4-2.54c0.56-0.32,1.46-0.32,2.02,0l4.4,2.54
								c0.56,0.32,0.56,0.84,0,1.17l-4.4,2.54C265.51,164.69,264.6,164.69,264.05,164.37z"/>
							<path class="st59" d="M272.41,169.2l-4.4-2.54c-0.56-0.32-0.56-0.84,0-1.17l4.4-2.54c0.56-0.32,1.46-0.32,2.02,0l4.4,2.54
								c0.56,0.32,0.56,0.84,0,1.17l-4.4,2.54C273.87,169.52,272.97,169.52,272.41,169.2z"/>
							<path class="st59" d="M280.77,174.03l-4.4-2.54c-0.56-0.32-0.56-0.84,0-1.17l4.4-2.54c0.56-0.32,1.46-0.32,2.02,0l4.4,2.54
								c0.56,0.32,0.56,0.84,0,1.17l-4.4,2.54C282.24,174.35,281.33,174.35,280.77,174.03z"/>
							<path class="st59" d="M289.14,178.86l-4.4-2.54c-0.56-0.32-0.56-0.84,0-1.17l4.4-2.54c0.56-0.32,1.46-0.32,2.02,0l4.4,2.54
								c0.56,0.32,0.56,0.84,0,1.17l-4.4,2.54C290.6,179.18,289.69,179.18,289.14,178.86z"/>
							<path class="st59" d="M297.5,183.69l-4.4-2.54c-0.56-0.32-0.56-0.84,0-1.17l4.4-2.54c0.56-0.32,1.46-0.32,2.02,0l4.4,2.54
								c0.56,0.32,0.56,0.84,0,1.17l-4.4,2.54C298.96,184.01,298.06,184.01,297.5,183.69z"/>
							<path class="st59" d="M305.86,188.52l-4.4-2.54c-0.56-0.32-0.56-0.84,0-1.17l4.4-2.54c0.56-0.32,1.46-0.32,2.02,0l4.4,2.54
								c0.56,0.32,0.56,0.84,0,1.17l-4.4,2.54C307.33,188.84,306.42,188.84,305.86,188.52z"/>
							<path class="st59" d="M314.23,193.34l-4.4-2.54c-0.56-0.32-0.56-0.84,0-1.17l4.4-2.54c0.56-0.32,1.46-0.32,2.02,0l4.4,2.54
								c0.56,0.32,0.56,0.84,0,1.17l-4.4,2.54C315.69,193.67,314.79,193.67,314.23,193.34z"/>
							<path class="st59" d="M322.59,198.17l-4.4-2.54c-0.56-0.32-0.56-0.84,0-1.17l4.4-2.54c0.56-0.32,1.46-0.32,2.02,0l4.4,2.54
								c0.56,0.32,0.56,0.84,0,1.17l-4.4,2.54C324.05,198.5,323.15,198.5,322.59,198.17z"/>
							<path class="st59" d="M247.54,164.32l-4.53-2.62c-0.52-0.3-0.52-0.79,0-1.09l4.53-2.62c0.52-0.3,1.36-0.3,1.88,0l4.53,2.62
								c0.52,0.3,0.52,0.79,0,1.09l-4.53,2.62C248.9,164.62,248.06,164.62,247.54,164.32z"/>
							<path class="st59" d="M255.9,169.15l-4.53-2.62c-0.52-0.3-0.52-0.79,0-1.09l4.53-2.62c0.52-0.3,1.36-0.3,1.88,0l4.53,2.62
								c0.52,0.3,0.52,0.79,0,1.09l-4.53,2.62C257.27,169.45,256.42,169.45,255.9,169.15z"/>
							<path class="st59" d="M264.27,173.98l-4.53-2.62c-0.52-0.3-0.52-0.79,0-1.09l4.53-2.62c0.52-0.3,1.36-0.3,1.88,0l4.53,2.62
								c0.52,0.3,0.52,0.79,0,1.09l-4.53,2.62C265.63,174.28,264.79,174.28,264.27,173.98z"/>
							<path class="st59" d="M272.63,178.81l-4.53-2.62c-0.52-0.3-0.52-0.79,0-1.09l4.53-2.62c0.52-0.3,1.36-0.3,1.88,0l4.53,2.62
								c0.52,0.3,0.52,0.79,0,1.09l-4.53,2.62C274,179.11,273.15,179.11,272.63,178.81z"/>
							<path class="st59" d="M281,183.64l-4.53-2.62c-0.52-0.3-0.52-0.79,0-1.09l4.53-2.62c0.52-0.3,1.36-0.3,1.88,0l4.53,2.62
								c0.52,0.3,0.52,0.79,0,1.09l-4.53,2.62C282.36,183.94,281.52,183.94,281,183.64z"/>
							<path class="st59" d="M289.36,188.47l-4.53-2.62c-0.52-0.3-0.52-0.79,0-1.09l4.53-2.62c0.52-0.3,1.36-0.3,1.88,0l4.53,2.62
								c0.52,0.3,0.52,0.79,0,1.09l-4.53,2.62C290.72,188.77,289.88,188.77,289.36,188.47z"/>
							<path class="st59" d="M297.72,193.3l-4.53-2.62c-0.52-0.3-0.52-0.79,0-1.09l4.53-2.62c0.52-0.3,1.36-0.3,1.88,0l4.53,2.62
								c0.52,0.3,0.52,0.79,0,1.09l-4.53,2.62C299.09,193.6,298.24,193.6,297.72,193.3z"/>
							<path class="st59" d="M306.09,198.12l-4.53-2.62c-0.52-0.3-0.52-0.79,0-1.09l4.53-2.62c0.52-0.3,1.36-0.3,1.88,0l4.53,2.62
								c0.52,0.3,0.52,0.79,0,1.09l-4.53,2.62C307.45,198.42,306.61,198.42,306.09,198.12z"/>
							<path class="st59" d="M314.45,202.95l-4.53-2.62c-0.52-0.3-0.52-0.79,0-1.09l4.53-2.62c0.52-0.3,1.36-0.3,1.88,0l4.53,2.62
								c0.52,0.3,0.52,0.79,0,1.09l-4.53,2.62C315.81,203.25,314.97,203.25,314.45,202.95z"/>
							<path class="st59" d="M322.81,207.78l-4.53-2.62c-0.52-0.3-0.52-0.79,0-1.09l4.53-2.62c0.52-0.3,1.36-0.3,1.88,0l4.53,2.62
								c0.52,0.3,0.52,0.79,0,1.09l-4.53,2.62C324.18,208.08,323.33,208.08,322.81,207.78z"/>
							<path class="st59" d="M345.74,204.13l-3.46-2l-0.94-0.54l-8.36-4.83c-0.56-0.32-1.46-0.32-2.02,0l-4.4,2.54
								c-0.56,0.32-0.56,0.85,0,1.17l7.35,4.25l-2.73,1.58l-1.89,1.09l-2.64,1.52c-0.52,0.3-0.52,0.79,0,1.09l4.53,2.62
								c0.52,0.3,1.36,0.3,1.88,0l2.48-1.43l2.05-1.18l8.14-4.7C346.3,204.97,346.3,204.45,345.74,204.13z"/>
							<path class="st59" d="M239.4,169.1l-4.67-2.7c-0.48-0.28-0.48-0.73,0-1.01l4.67-2.7c0.48-0.28,1.26-0.28,1.75,0l4.67,2.7
								c0.48,0.28,0.48,0.73,0,1.01l-4.67,2.7C240.66,169.38,239.88,169.38,239.4,169.1z"/>
							<path class="st59" d="M247.76,173.93l-4.67-2.7c-0.48-0.28-0.48-0.73,0-1.01l4.67-2.7c0.48-0.28,1.26-0.28,1.75,0l4.67,2.7
								c0.48,0.28,0.48,0.73,0,1.01l-4.67,2.7C249.03,174.21,248.25,174.21,247.76,173.93z"/>
							<path class="st59" d="M256.13,178.76l-4.67-2.7c-0.48-0.28-0.48-0.73,0-1.01l4.67-2.7c0.48-0.28,1.26-0.28,1.75,0l4.67,2.7
								c0.48,0.28,0.48,0.73,0,1.01l-4.67,2.7C257.39,179.04,256.61,179.04,256.13,178.76z"/>
							<path class="st59" d="M304.36,199.2l-8.36-4.83l-4.67-2.7l-3.69-2.13l-4.67-2.7l-3.69-2.13l-4.67-2.7l-3.69-2.13l-1.99-1.15
								l-2.68-1.55c-0.48-0.28-1.26-0.28-1.75,0l-4.67,2.7c-0.48,0.28-0.48,0.73,0,1.01l2.68,1.55l1.99,1.15l3.69,2.13l4.67,2.7
								l3.69,2.13l4.67,2.7l3.69,2.13l4.67,2.7l8.36,4.83c0.48,0.28,1.26,0.28,1.75,0l4.67-2.7
								C304.85,199.93,304.85,199.48,304.36,199.2z"/>
							<path class="st59" d="M306.31,207.73l-4.67-2.7c-0.48-0.28-0.48-0.73,0-1.01l4.67-2.7c0.48-0.28,1.26-0.28,1.75,0l4.67,2.7
								c0.48,0.28,0.48,0.73,0,1.01l-4.67,2.7C307.57,208.01,306.79,208.01,306.31,207.73z"/>
							<path class="st59" d="M314.67,212.56l-4.67-2.7c-0.48-0.28-0.48-0.73,0-1.01l4.67-2.7c0.48-0.28,1.26-0.28,1.75,0l4.67,2.7
								c0.48,0.28,0.48,0.73,0,1.01l-4.67,2.7C315.94,212.84,315.16,212.84,314.67,212.56z"/>
							<path class="st59" d="M323.04,217.39l-4.67-2.7c-0.48-0.28-0.48-0.73,0-1.01l4.67-2.7c0.48-0.28,1.26-0.28,1.75,0l4.67,2.7
								c0.48,0.28,0.48,0.73,0,1.01l-4.67,2.7C324.3,217.67,323.52,217.67,323.04,217.39z"/>
						</g>
						<path class="st59" d="M270.78,214.4l-30.87-17.82c-0.76-0.44-0.66-1.2,0.21-1.71l17.11-9.88c0.88-0.51,2.2-0.56,2.96-0.12
							l30.87,17.82c0.76,0.44,0.66,1.2-0.21,1.71l-17.11,9.88C272.86,214.78,271.54,214.84,270.78,214.4z"/>
					</g>
					<g>
						
							<linearGradient id="SVGID_6_" gradientUnits="userSpaceOnUse" x1="726.5745" y1="191.0352" x2="813.2681" y2="64.186" gradientTransform="matrix(1 0 0 1 -455.3112 0)">
							<stop  offset="0" style="stop-color:#4095DE"/>
							<stop  offset="1" style="stop-color:#19072D"/>
						</linearGradient>
						<polygon class="st60" points="349.81,199.6 259.75,147.6 259.75,84.4 349.81,136.39 						"/>
						
							<linearGradient id="SVGID_7_" gradientUnits="userSpaceOnUse" x1="776.493" y1="90.3828" x2="719.0252" y2="220.7007" gradientTransform="matrix(1 0 0 1 -455.3112 0)">
							<stop  offset="0" style="stop-color:#4095DE"/>
							<stop  offset="1" style="stop-color:#19072D"/>
						</linearGradient>
						<polygon class="st61" points="341.27,204.53 251.22,152.54 251.22,89.33 341.27,141.33 						"/>
					</g>
				</g>
			</g>
		</g>
		<g>
			<g>
				<g>
					<g>
						<g>
							<linearGradient id="SVGID_8_" gradientUnits="userSpaceOnUse" x1="265.3358" y1="78.3033" x2="136.6401" y2="119.6698">
								<stop  offset="0" style="stop-color:#19072D"/>
								<stop  offset="0.4719" style="stop-color:#2B4A81"/>
								<stop  offset="1" style="stop-color:#4095DE"/>
							</linearGradient>
							<path class="st62" d="M237.43,136.94l-26.23-17.29c-1.11-0.64-2.01-2.36-2.01-3.83l-1.86-67.56c0-1.32,2.26-2.69,3.87-1.94
								l27.92,16.12c1.41,0.62,2.01,2.01,2.01,3.83v67.98C241.12,135.93,238.84,137.44,237.43,136.94z"/>
							<path class="st54" d="M237.12,136.79l-27.92-16.12c-1.11-0.64-2.01-2.36-2.01-3.83V48.85c0-1.48,0.9-2.16,2.01-1.52
								l27.92,16.12c1.41,0.62,2.01,2.01,2.01,3.83v67.98C239.13,136.75,238.23,137.43,237.12,136.79z"/>
							
								<linearGradient id="SVGID_9_" gradientUnits="userSpaceOnUse" x1="-81.1513" y1="136.7398" x2="-83.2862" y2="31.8902" gradientTransform="matrix(-1 0 0 1 141.0806 0)">
								<stop  offset="0" style="stop-color:#4095DE"/>
								<stop  offset="1" style="stop-color:#19072D"/>
							</linearGradient>
							<polygon class="st63" points="237.52,130.69 208.81,114.11 208.81,51.41 237.52,67.98 							"/>
							<path class="st64" d="M225.31,59.56l-4.3-2.48c-0.26-0.15-0.47-0.56-0.47-0.91l0,0c0-0.35,0.21-0.51,0.47-0.36l4.3,2.48
								c0.26,0.15,0.47,0.56,0.47,0.91l0,0C225.79,59.55,225.57,59.71,225.31,59.56z"/>
							<path class="st64" d="M211.55,51.16c0,0.46-0.32,0.64-0.72,0.42c-0.4-0.23-0.72-0.79-0.72-1.25c0-0.46,0.32-0.64,0.72-0.42
								C211.23,50.14,211.55,50.7,211.55,51.16z"/>
							<path class="st64" d="M212.98,51.99c0,0.22-0.15,0.31-0.34,0.2c-0.19-0.11-0.34-0.38-0.34-0.6c0-0.22,0.15-0.31,0.34-0.2
								C212.83,51.5,212.98,51.77,212.98,51.99z"/>
							<g>
								<linearGradient id="SVGID_10_" gradientUnits="userSpaceOnUse" x1="223.736" y1="121.7919" x2="221.8589" y2="133.9931">
									<stop  offset="0" style="stop-color:#4095DE"/>
									<stop  offset="1" style="stop-color:#19072D"/>
								</linearGradient>
								<path class="st65" d="M225.12,126.66c0,1.25-0.88,1.75-1.96,1.13c-1.08-0.62-1.96-2.14-1.96-3.39
									c0-1.25,0.88-1.75,1.96-1.13C224.24,123.89,225.12,125.41,225.12,126.66z"/>
								<path class="st59" d="M224.8,126.47c0,1.05-0.73,1.47-1.64,0.95c-0.91-0.52-1.64-1.79-1.64-2.84c0-1.05,0.73-1.47,1.64-0.95
									C224.07,124.16,224.8,125.43,224.8,126.47z"/>
							</g>
						</g>
					</g>
				</g>
				<g>
					<g>
						<g>
							<polygon class="st66" points="208.81,51.41 237.52,67.98 237.52,75.03 208.81,58.45 							"/>
						</g>
						<g>
							<g>
								<polygon class="st67" points="210.11,54.72 213.65,56.77 213.65,56.21 210.11,54.16 								"/>
								<polygon class="st67" points="210.11,55.89 213.65,57.94 213.65,57.38 210.11,55.33 								"/>
								<polygon class="st67" points="210.11,57.06 213.65,59.11 213.65,58.54 210.11,56.5 								"/>
							</g>
							<path class="st67" d="M234.92,70.47c0.08,0.02,0.17,0.09,0.25,0.2l1.04,1.52c0.01,0.01,0.02,0.03,0.03,0.04l-0.34,0.31
								c-0.01-0.01-0.02-0.03-0.03-0.04l-1.04-1.52c-0.07-0.11-0.11-0.23-0.11-0.32l-0.37-0.54c-0.39,0.2-1-0.1-1.44-0.75
								c-0.48-0.71-0.57-1.57-0.2-1.91c0.37-0.34,1.07-0.04,1.56,0.67c0.44,0.64,0.55,1.41,0.29,1.8L234.92,70.47z M234.03,68.34
								c-0.32-0.48-0.79-0.68-1.04-0.45c-0.25,0.23-0.19,0.8,0.13,1.28c0.32,0.48,0.79,0.68,1.04,0.45
								C234.42,69.39,234.36,68.81,234.03,68.34z"/>
						</g>
					</g>
					<g>
						<g class="st68">
							<g>
								<path d="M235.53,125.59l-22.93-13.24c-0.43-0.25-0.78-0.92-0.78-1.5V98.29c0-0.58,0.35-0.84,0.78-0.59l22.93,13.24
									c0.43,0.25,0.78,0.92,0.78,1.5V125C236.31,125.58,235.96,125.84,235.53,125.59z"/>
							</g>
							<path d="M235.52,90.68l-22.92-13.23c-0.43-0.25-0.78-0.92-0.78-1.5V64.84c0-0.58,0.35-0.84,0.78-0.59l22.92,13.23
								c0.43,0.25,0.78,0.92,0.78,1.5v11.11C236.31,90.66,235.96,90.93,235.52,90.68z"/>
							<path d="M212.66,87.08l22.8,13.16c0.46,0.27,0.84,0.05,0.84-0.49v-6.59c0-0.54-0.38-1.19-0.84-1.46l-22.8-13.16
								c-0.46-0.27-0.84-0.05-0.84,0.49v6.59C211.82,86.16,212.2,86.81,212.66,87.08z"/>
							<path d="M212.66,96.67l22.8,13.16c0.46,0.27,0.84,0.05,0.84-0.49v-6.59c0-0.54-0.38-1.19-0.84-1.46l-22.8-13.16
								c-0.46-0.27-0.84-0.05-0.84,0.49v6.59C211.82,95.75,212.2,96.4,212.66,96.67z"/>
						</g>
						<g>
							<g>
								<path class="st69" d="M234.04,123.69l-22.93-13.24c-0.43-0.25-0.78-0.92-0.78-1.5V96.39c0-0.58,0.35-0.84,0.78-0.59
									l22.93,13.24c0.43,0.25,0.78,0.92,0.78,1.5v12.57C234.82,123.67,234.47,123.94,234.04,123.69z"/>
								<linearGradient id="SVGID_11_" gradientUnits="userSpaceOnUse" x1="224.9473" y1="103.23" x2="219.9437" y2="130.0674">
									<stop  offset="0" style="stop-color:#4095DE"/>
									<stop  offset="1" style="stop-color:#19072D"/>
								</linearGradient>
								<path class="st70" d="M233.24,122.09c-0.32-2.93-1.8-9.23-3.93-10.5c-2.43-1.44-3.38,3.51-4.44,2.85
									c-1.05-0.66-0.96-4.1-2.89-5.21c-1.93-1.12-1.83,4.02-3.46,3c-1.57-0.98-1.43-4.34-3.4-5.39c-1.44-0.77-2.71,1.71-3.2,2.94
									L233.24,122.09z"/>
							</g>
							<g>
								<path class="st69" d="M234.04,88.78l-22.92-13.23c-0.43-0.25-0.78-0.92-0.78-1.5V62.94c0-0.58,0.35-0.84,0.78-0.59
									l22.92,13.23c0.43,0.25,0.78,0.92,0.78,1.5v11.11C234.82,88.76,234.47,89.03,234.04,88.78z"/>
								<g>
									<g>
										<path class="st71" d="M212.68,68.63l19.08,11.01c0.38,0.22,0.86-0.06,0.86-0.5v-1.54c0-0.3-0.16-0.59-0.43-0.74
											l-19.15-11.06c-0.35-0.2-0.79,0.05-0.79,0.46v1.63C212.26,68.2,212.42,68.48,212.68,68.63z"/>
									</g>
									<g>
										<path class="st71" d="M212.26,70.55v0.53c0,0.24,0.13,0.47,0.34,0.59l19.44,11.22c0.26,0.15,0.58-0.04,0.58-0.34v-0.58
											c0-0.24-0.13-0.47-0.34-0.59l-19.4-11.2C212.6,70.03,212.26,70.23,212.26,70.55z"/>
									</g>
									<g>
										<path class="st71" d="M212.26,73.38v0.49c0,0.25,0.13,0.47,0.34,0.6l19.48,11.25c0.24,0.14,0.54-0.03,0.54-0.31v-0.62
											c0-0.25-0.13-0.47-0.34-0.6L212.91,73C212.62,72.83,212.26,73.04,212.26,73.38z"/>
									</g>
								</g>
							</g>
							<g>
								<path class="st69" d="M211.18,85.18l22.8,13.16c0.46,0.27,0.84,0.05,0.84-0.49v-6.59c0-0.54-0.38-1.19-0.84-1.46
									l-22.8-13.16c-0.46-0.27-0.84-0.05-0.84,0.49v6.59C210.34,84.25,210.71,84.91,211.18,85.18z"/>
								<g>
									<polygon class="st71" points="218.82,88.41 211.77,84.34 211.77,78.16 218.82,82.23 									"/>
									<polygon class="st66" points="211.77,82.85 213.49,82.13 215.01,84.4 217.22,83.37 218.82,85.83 218.82,88.41 
										211.77,84.34 									"/>
									<path class="st66" d="M215.45,82.23c0,0.4-0.28,0.56-0.62,0.36c-0.34-0.2-0.62-0.68-0.62-1.08c0-0.4,0.28-0.56,0.62-0.36
										C215.17,81.35,215.45,81.83,215.45,82.23z"/>
								</g>
								<g>
									<path class="st71" d="M233,95.62l-12.86-7.43c-0.13-0.07-0.2-0.21-0.2-0.35v-0.6c0-0.24,0.26-0.38,0.46-0.27l12.8,7.39
										c0.13,0.07,0.2,0.21,0.2,0.35v0.67C233.39,95.6,233.17,95.72,233,95.62z"/>
									<path class="st71" d="M226.32,89.44l-6.18-3.57c-0.13-0.07-0.2-0.21-0.2-0.35l0-1.73c0-0.2,0.21-0.32,0.38-0.22l6.14,3.55
										c0.13,0.07,0.2,0.21,0.2,0.35v1.77C226.66,89.42,226.47,89.53,226.32,89.44z"/>
								</g>
							</g>
							<g>
								<path class="st69" d="M211.18,94.77l22.8,13.16c0.46,0.27,0.84,0.05,0.84-0.49v-6.59c0-0.54-0.38-1.19-0.84-1.46
									l-22.8-13.16c-0.46-0.27-0.84-0.05-0.84,0.49v6.59C210.34,93.85,210.71,94.5,211.18,94.77z"/>
								<g>
									<path class="st71" d="M233,105.22l-12.86-7.43c-0.13-0.07-0.2-0.21-0.2-0.35v-0.6c0-0.24,0.26-0.38,0.46-0.27l12.8,7.39
										c0.13,0.07,0.2,0.21,0.2,0.35v0.67C233.39,105.2,233.17,105.32,233,105.22z"/>
									<path class="st71" d="M226.32,99.04l-6.18-3.57c-0.13-0.07-0.2-0.21-0.2-0.35l0-1.73c0-0.2,0.21-0.32,0.38-0.22l6.14,3.55
										c0.13,0.07,0.2,0.21,0.2,0.35v1.77C226.66,99.02,226.47,99.13,226.32,99.04z"/>
								</g>
								<g>
									<polygon class="st71" points="218.82,98 211.77,93.93 211.77,87.76 218.82,91.83 									"/>
									<polygon class="st66" points="211.77,92.45 213.49,91.73 215.01,93.99 217.22,92.97 218.82,95.42 218.82,98 211.77,93.93 
																			"/>
									<path class="st66" d="M215.45,91.82c0,0.4-0.28,0.56-0.62,0.36c-0.34-0.2-0.62-0.68-0.62-1.08c0-0.4,0.28-0.56,0.62-0.36
										C215.17,90.94,215.45,91.42,215.45,91.82z"/>
								</g>
							</g>
						</g>
					</g>
				</g>
			</g>
			<g>
				<path class="st2" d="M233.97,152.94l-34.72-20.05c-0.85-0.68-0.86-1.89-0.04-2.39l5.63-3.25c0.62-0.36,1.56-0.4,2.1-0.09
					l34.39,19.85c1.18,0.68,1.04,2.13,0.26,2.65l-5.52,3.19C235.44,153.21,234.51,153.25,233.97,152.94z"/>
				<path class="st3" d="M233.95,152.87l-34.61-19.98c-0.85-0.67-0.85-1.87-0.04-2.37l5.56-3.21c0.62-0.36,1.56-0.4,2.1-0.09
					l34.28,19.79c1.17,0.67,1.03,2.1,0.25,2.62l-5.45,3.14C235.42,153.14,234.48,153.18,233.95,152.87z"/>
				<path class="st4" d="M233.92,152.81l-34.49-19.91c-0.84-0.66-0.84-1.85-0.03-2.34l5.49-3.17c0.62-0.36,1.56-0.4,2.1-0.09
					l34.17,19.73c1.15,0.66,1.02,2.08,0.25,2.59l-5.38,3.1C235.4,153.08,234.46,153.12,233.92,152.81z"/>
				<path class="st5" d="M233.9,152.74l-34.38-19.85c-0.83-0.66-0.83-1.83-0.03-2.32l5.41-3.13c0.62-0.36,1.56-0.4,2.09-0.09
					l34.06,19.66c1.14,0.66,1.01,2.05,0.24,2.56l-5.31,3.06C235.37,153.01,234.44,153.05,233.9,152.74z"/>
				<path class="st6" d="M233.88,152.67l-34.26-19.78c-0.83-0.65-0.83-1.81-0.03-2.29l5.34-3.08c0.62-0.36,1.56-0.4,2.09-0.09
					l33.95,19.6c1.13,0.65,0.99,2.02,0.23,2.53l-5.23,3.02C235.35,152.94,234.41,152.98,233.88,152.67z"/>
				<path class="st7" d="M233.86,152.61l-34.14-19.71c-0.82-0.64-0.82-1.79-0.02-2.27l5.27-3.04c0.62-0.36,1.55-0.4,2.09-0.09
					l33.84,19.54c1.11,0.64,0.98,2,0.22,2.5l-5.16,2.98C235.33,152.88,234.39,152.92,233.86,152.61z"/>
				<path class="st8" d="M233.83,152.54l-34.03-19.65c-0.81-0.63-0.81-1.77-0.02-2.25l5.2-3c0.62-0.36,1.55-0.4,2.09-0.09
					l33.73,19.48c1.1,0.63,0.97,1.97,0.21,2.47l-5.09,2.94C235.3,152.81,234.37,152.85,233.83,152.54z"/>
				<path class="st9" d="M233.81,152.47l-33.91-19.58c-0.81-0.63-0.8-1.75-0.02-2.22l5.12-2.96c0.62-0.36,1.55-0.4,2.09-0.09
					l33.62,19.41c1.09,0.63,0.96,1.95,0.21,2.45l-5.02,2.9C235.28,152.74,234.34,152.78,233.81,152.47z"/>
				<path class="st10" d="M233.79,152.41l-33.8-19.51c-0.8-0.62-0.79-1.72-0.01-2.2l5.05-2.92c0.62-0.36,1.55-0.39,2.08-0.09
					l33.51,19.35c1.07,0.62,0.95,1.92,0.2,2.42l-4.95,2.86C235.26,152.68,234.32,152.72,233.79,152.41z"/>
				<path class="st11" d="M233.77,152.34l-33.68-19.45c-0.79-0.61-0.79-1.7-0.01-2.17l4.98-2.87c0.62-0.36,1.55-0.39,2.08-0.09
					l33.41,19.29c1.06,0.61,0.94,1.9,0.19,2.39l-4.88,2.82C235.23,152.61,234.3,152.65,233.77,152.34z"/>
				<path class="st12" d="M233.74,152.27l-33.57-19.38c-0.79-0.6-0.78-1.68-0.01-2.15l4.9-2.83c0.62-0.36,1.55-0.39,2.08-0.09
					l33.3,19.22c1.05,0.6,0.92,1.87,0.18,2.36l-4.81,2.78C235.21,152.54,234.28,152.58,233.74,152.27z"/>
				<path class="st13" d="M233.72,152.21l-33.45-19.31c-0.78-0.6-0.77-1.66,0-2.13l4.83-2.79c0.62-0.36,1.55-0.39,2.08-0.09
					l33.19,19.16c1.04,0.6,0.91,1.84,0.17,2.33l-4.74,2.74C235.18,152.48,234.25,152.52,233.72,152.21z"/>
				<path class="st14" d="M233.7,152.14l-33.33-19.25c-0.77-0.59-0.76-1.64,0-2.1l4.76-2.75c0.62-0.36,1.55-0.39,2.08-0.09
					l33.08,19.1c1.02,0.59,0.9,1.82,0.17,2.3l-4.67,2.7C235.16,152.41,234.23,152.45,233.7,152.14z"/>
				<path class="st15" d="M233.68,152.08l-33.22-19.18c-0.77-0.58-0.75-1.62,0.01-2.08l4.69-2.71c0.61-0.35,1.54-0.39,2.08-0.09
					l32.97,19.03c1.01,0.58,0.89,1.79,0.16,2.27l-4.6,2.66C235.14,152.34,234.21,152.38,233.68,152.08z"/>
				<path class="st16" d="M233.65,152.01l-33.1-19.11c-0.76-0.57-0.75-1.6,0.01-2.05l4.61-2.66c0.61-0.35,1.54-0.39,2.07-0.09
					l32.86,18.97c1,0.57,0.88,1.77,0.15,2.24l-4.53,2.62C235.11,152.28,234.18,152.32,233.65,152.01z"/>
				<path class="st17" d="M233.63,151.94l-32.99-19.05c-0.75-0.57-0.74-1.58,0.01-2.03l4.54-2.62c0.61-0.35,1.54-0.39,2.07-0.09
					l32.75,18.91c0.98,0.57,0.87,1.74,0.14,2.21l-4.46,2.57C235.09,152.21,234.16,152.25,233.63,151.94z"/>
				<path class="st18" d="M233.61,151.88l-32.87-18.98c-0.75-0.56-0.73-1.56,0.02-2l4.47-2.58c0.61-0.35,1.54-0.39,2.07-0.09
					l32.64,18.85c0.97,0.56,0.86,1.72,0.13,2.18l-4.39,2.53C235.07,152.14,234.14,152.18,233.61,151.88z"/>
				<path class="st19" d="M233.59,151.81l-32.76-18.91c-0.74-0.55-0.72-1.53,0.02-1.98l4.4-2.54c0.61-0.35,1.54-0.39,2.07-0.09
					l32.53,18.78c0.96,0.55,0.84,1.69,0.13,2.15l-4.32,2.49C235.04,152.08,234.12,152.12,233.59,151.81z"/>
				<path class="st20" d="M233.56,151.74l-32.64-18.84c-0.73-0.54-0.71-1.51,0.02-1.96l4.32-2.5c0.61-0.35,1.54-0.39,2.07-0.09
					l32.42,18.72c0.94,0.54,0.83,1.67,0.12,2.12l-4.25,2.45C235.02,152.01,234.09,152.05,233.56,151.74z"/>
				<path class="st21" d="M233.54,151.68l-32.52-18.78c-0.73-0.54-0.71-1.49,0.03-1.93l4.25-2.45c0.61-0.35,1.54-0.39,2.07-0.09
					l32.31,18.66c0.93,0.54,0.82,1.64,0.11,2.1l-4.18,2.41C235,151.94,234.07,151.98,233.54,151.68z"/>
				<path class="st22" d="M233.52,151.61l-32.41-18.71c-0.72-0.53-0.7-1.47,0.03-1.91l4.18-2.41c0.61-0.35,1.54-0.39,2.06-0.09
					l32.2,18.59c0.92,0.53,0.81,1.61,0.1,2.07l-4.11,2.37C234.97,151.88,234.05,151.92,233.52,151.61z"/>
				<path class="st23" d="M233.5,151.54L201.2,132.9c-0.71-0.52-0.69-1.45,0.03-1.88l4.1-2.37c0.61-0.35,1.53-0.39,2.06-0.09
					l32.1,18.53c0.91,0.52,0.8,1.59,0.09,2.04l-4.04,2.33C234.95,151.81,234.02,151.85,233.5,151.54z"/>
				<path class="st24" d="M233.47,151.48L201.3,132.9c-0.71-0.51-0.68-1.43,0.04-1.86l4.03-2.33c0.61-0.35,1.53-0.39,2.06-0.09
					l31.99,18.47c0.89,0.51,0.79,1.56,0.09,2.01l-3.97,2.29C234.92,151.74,234,151.78,233.47,151.48z"/>
				<path class="st25" d="M233.45,151.41l-32.06-18.51c-0.7-0.51-0.67-1.41,0.04-1.84l3.96-2.29c0.61-0.35,1.53-0.39,2.06-0.09
					l31.88,18.4c0.88,0.51,0.77,1.54,0.08,1.98l-3.9,2.25C234.9,151.68,233.98,151.72,233.45,151.41z"/>
				<path class="st26" d="M233.43,151.34l-31.95-18.44c-0.69-0.5-0.67-1.39,0.05-1.81l3.89-2.24c0.61-0.35,1.53-0.39,2.06-0.09
					l31.77,18.34c0.87,0.5,0.76,1.51,0.07,1.95l-3.83,2.21C234.88,151.61,233.96,151.65,233.43,151.34z"/>
				<path class="st27" d="M233.41,151.28l-31.83-18.38c-0.69-0.49-0.66-1.37,0.05-1.79l3.81-2.2c0.61-0.35,1.53-0.39,2.06-0.09
					l31.66,18.28c0.85,0.49,0.75,1.49,0.06,1.92l-3.75,2.17C234.85,151.54,233.93,151.58,233.41,151.28z"/>
				<path class="st28" d="M233.38,151.21l-31.71-18.31c-0.68-0.48-0.65-1.34,0.05-1.76l3.74-2.16c0.61-0.35,1.53-0.39,2.05-0.09
					l31.55,18.22c0.84,0.48,0.74,1.46,0.05,1.89l-3.68,2.13C234.83,151.48,233.91,151.51,233.38,151.21z"/>
				<path class="st29" d="M233.36,151.14l-31.6-18.24c-0.67-0.48-0.64-1.32,0.06-1.74l3.67-2.12c0.61-0.35,1.53-0.39,2.05-0.09
					l31.44,18.15c0.83,0.48,0.73,1.43,0.05,1.86l-3.61,2.09C234.81,151.41,233.89,151.45,233.36,151.14z"/>
				<path class="st30" d="M233.34,151.08l-31.48-18.18c-0.67-0.47-0.63-1.3,0.06-1.72l3.6-2.08c0.61-0.35,1.53-0.39,2.05-0.09
					l31.33,18.09c0.81,0.47,0.72,1.41,0.04,1.83l-3.54,2.05C234.78,151.34,233.86,151.38,233.34,151.08z"/>
				<path class="st31" d="M233.32,151.01l-31.37-18.11c-0.66-0.46-0.63-1.28,0.06-1.69l3.52-2.03c0.61-0.35,1.52-0.39,2.05-0.08
					l31.22,18.03c0.8,0.46,0.71,1.38,0.03,1.8l-3.47,2.01C234.76,151.28,233.84,151.31,233.32,151.01z"/>
				<path class="st32" d="M233.29,150.94l-31.25-18.04c-0.65-0.45-0.62-1.26,0.07-1.67l3.45-1.99c0.61-0.35,1.52-0.39,2.05-0.08
					l31.11,17.96c0.79,0.45,0.69,1.36,0.02,1.77l-3.4,1.96C234.73,151.21,233.82,151.25,233.29,150.94z"/>
				<path class="st33" d="M233.27,150.88l-31.14-17.98c-0.65-0.45-0.61-1.24,0.07-1.64l3.38-1.95c0.61-0.35,1.52-0.39,2.05-0.08
					l31,17.9c0.78,0.45,0.68,1.33,0.01,1.75l-3.33,1.92C234.71,151.14,233.79,151.18,233.27,150.88z"/>
				<path class="st34" d="M233.25,150.81l-31.02-17.91c-0.64-0.44-0.6-1.22,0.08-1.62l3.3-1.91c0.6-0.35,1.52-0.39,2.04-0.08
					l30.89,17.84c0.76,0.44,0.67,1.31,0.01,1.72l-3.26,1.88C234.69,151.08,233.77,151.11,233.25,150.81z"/>
				<path class="st35" d="M233.23,150.75l-30.9-17.84c-0.63-0.43-0.59-1.2,0.08-1.6l3.23-1.87c0.6-0.35,1.52-0.39,2.04-0.08
					l30.79,17.77c0.75,0.43,0.66,1.28,0,1.69l-3.19,1.84C234.66,151.01,233.75,151.05,233.23,150.75z"/>
				<path class="st36" d="M233.2,150.68l-30.79-17.78c-0.63-0.42-0.59-1.18,0.08-1.57l3.16-1.82c0.6-0.35,1.52-0.39,2.04-0.08
					l30.68,17.71c0.74,0.42,0.65,1.25-0.01,1.66l-3.12,1.8C234.64,150.94,233.73,150.98,233.2,150.68z"/>
				<path class="st37" d="M233.18,150.61l-30.67-17.71c-0.62-0.42-0.58-1.16,0.09-1.55l3.09-1.78c0.6-0.35,1.52-0.39,2.04-0.08
					l30.57,17.65c0.72,0.42,0.64,1.23-0.02,1.63l-3.05,1.76C234.62,150.88,233.7,150.91,233.18,150.61z"/>
				<path class="st38" d="M233.16,150.55L202.6,132.9c-0.61-0.41-0.57-1.13,0.09-1.52l3.01-1.74c0.6-0.35,1.52-0.39,2.04-0.08
					l30.46,17.59c0.71,0.41,0.62,1.2-0.02,1.6l-2.98,1.72C234.59,150.81,233.68,150.85,233.16,150.55z"/>
				<path class="st39" d="M233.14,150.48l-30.44-17.58c-0.61-0.4-0.56-1.11,0.09-1.5l2.94-1.7c0.6-0.35,1.51-0.39,2.04-0.08
					l30.35,17.52c0.7,0.4,0.61,1.18-0.03,1.57l-2.91,1.68C234.57,150.74,233.66,150.78,233.14,150.48z"/>
				<path class="st40" d="M233.11,150.41l-30.33-17.51c-0.6-0.4-0.55-1.09,0.1-1.47l2.87-1.66c0.6-0.35,1.51-0.39,2.03-0.08
					l30.24,17.46c0.68,0.39,0.6,1.15-0.04,1.54l-2.84,1.64C234.55,150.68,233.63,150.71,233.11,150.41z"/>
				<path class="st41" d="M233.09,150.35l-30.21-17.44c-0.59-0.39-0.55-1.07,0.1-1.45l2.79-1.61c0.6-0.35,1.51-0.39,2.03-0.08
					l30.13,17.4c0.67,0.39,0.59,1.13-0.05,1.51l-2.77,1.6C234.52,150.61,233.61,150.65,233.09,150.35z"/>
				<path class="st42" d="M233.07,150.28l-30.09-17.37c-0.59-0.38-0.54-1.05,0.1-1.43l2.72-1.57c0.6-0.35,1.51-0.38,2.03-0.08
					l30.02,17.33c0.66,0.38,0.58,1.1-0.06,1.48l-2.7,1.56C234.5,150.54,233.59,150.58,233.07,150.28z"/>
				<path class="st43" d="M233.05,150.21l-29.98-17.31c-0.58-0.37-0.53-1.03,0.11-1.4l2.65-1.53c0.6-0.35,1.51-0.38,2.03-0.08
					l29.91,17.27c0.65,0.37,0.57,1.07-0.06,1.45l-2.63,1.52C234.47,150.48,233.57,150.51,233.05,150.21z"/>
				<path class="st44" d="M233.02,150.15l-29.86-17.24c-0.58-0.37-0.52-1.01,0.11-1.38l2.58-1.49c0.6-0.35,1.51-0.38,2.03-0.08
					l29.8,17.21c0.63,0.36,0.56,1.05-0.07,1.42l-2.56,1.48C234.45,150.41,233.54,150.45,233.02,150.15z"/>
				<path class="st45" d="M233,150.08l-29.75-17.17c-0.57-0.36-0.51-0.99,0.12-1.35l2.5-1.45c0.6-0.35,1.51-0.38,2.03-0.08
					l29.69,17.14c0.62,0.36,0.54,1.02-0.08,1.4l-2.49,1.44C234.43,150.34,233.52,150.38,233,150.08z"/>
				<path class="st46" d="M232.98,150.01l-29.63-17.11c-0.56-0.35-0.51-0.97,0.12-1.33l2.43-1.4c0.6-0.35,1.51-0.38,2.02-0.08
					l29.58,17.08c0.61,0.35,0.53,1-0.09,1.37l-2.42,1.39C234.4,150.28,233.5,150.31,232.98,150.01z"/>
				<path class="st47" d="M232.96,149.95l-29.51-17.04c-0.56-0.34-0.5-0.94,0.12-1.31l2.36-1.36c0.6-0.35,1.5-0.38,2.02-0.08
					l29.48,17.02c0.59,0.34,0.52,0.97-0.1,1.34l-2.35,1.35C234.38,150.21,233.47,150.25,232.96,149.95z"/>
				<path class="st48" d="M232.93,149.88l-29.4-16.97c-0.55-0.34-0.49-0.92,0.13-1.28l2.29-1.32c0.6-0.35,1.5-0.38,2.02-0.08
					l29.37,16.95c0.58,0.34,0.51,0.95-0.1,1.31l-2.27,1.31C234.36,150.14,233.45,150.18,232.93,149.88z"/>
				<path class="st49" d="M232.91,149.81l-29.28-16.91c-0.54-0.33-0.48-0.9,0.13-1.26l2.21-1.28c0.6-0.34,1.5-0.38,2.02-0.08
					l29.26,16.89c0.57,0.33,0.5,0.92-0.11,1.28l-2.2,1.27C234.33,150.08,233.43,150.11,232.91,149.81z"/>
				<path class="st50" d="M232.89,149.75l-29.17-16.84c-0.54-0.32-0.48-0.88,0.13-1.23l2.14-1.24c0.6-0.34,1.5-0.38,2.02-0.08
					l29.15,16.83c0.55,0.32,0.49,0.89-0.12,1.25l-2.13,1.23C234.31,150.01,233.41,150.05,232.89,149.75z"/>
				<path class="st51" d="M232.87,149.68l-29.05-16.77c-0.53-0.31-0.47-0.86,0.14-1.21l2.07-1.19c0.6-0.34,1.5-0.38,2.02-0.08
					l29.04,16.77c0.54,0.31,0.47,0.87-0.13,1.22l-2.06,1.19C234.28,149.94,233.38,149.98,232.87,149.68z"/>
				<path class="st52" d="M232.84,149.62l-28.94-16.71c-0.52-0.31-0.46-0.84,0.14-1.19l1.99-1.15c0.6-0.34,1.5-0.38,2.01-0.08
					l28.93,16.7c0.53,0.31,0.46,0.84-0.14,1.19l-1.99,1.15C234.26,149.88,233.36,149.91,232.84,149.62z"/>
				<path class="st53" d="M232.82,149.55L204,132.91c-0.52-0.3-0.45-0.82,0.14-1.16l1.92-1.11c0.6-0.34,1.5-0.38,2.01-0.08
					l28.82,16.64c0.52,0.3,0.45,0.82-0.14,1.16l-1.92,1.11C234.24,149.81,233.34,149.85,232.82,149.55z"/>
			</g>
		</g>
		<g class="st72">
			<path class="st59" d="M296.31,128.77l-37.54-21.67c-0.42-0.25-0.77-0.9-0.77-1.47v-1.79c0-0.57,0.34-0.83,0.77-0.58l37.54,21.67
				c0.42,0.25,0.77,0.9,0.77,1.47v1.79C297.08,128.75,296.73,129.01,296.31,128.77z"/>
			<path class="st59" d="M296.67,133.95l-38.26-22.09c-0.23-0.13-0.41-0.48-0.41-0.78v-1.32c0-0.3,0.18-0.44,0.41-0.31l38.26,22.09
				c0.23,0.13,0.41,0.48,0.41,0.78v1.32C297.08,133.94,296.89,134.08,296.67,133.95z"/>
			<path class="st59" d="M296.67,138.4l-38.26-22.09c-0.23-0.13-0.41-0.48-0.41-0.78v-1.32c0-0.3,0.18-0.44,0.41-0.31l38.26,22.09
				c0.23,0.13,0.41,0.48,0.41,0.78v1.32C297.08,138.4,296.89,138.53,296.67,138.4z"/>
			<path class="st59" d="M288.92,142.84l-30.56-17.64c-0.2-0.12-0.37-0.43-0.37-0.7v-1.44c0-0.27,0.16-0.39,0.37-0.28l30.56,17.64
				c0.2,0.12,0.37,0.43,0.37,0.7v1.44C289.29,142.84,289.12,142.96,288.92,142.84z"/>
			<path class="st59" d="M296.67,142.86l-38.26-22.09c-0.23-0.13-0.41-0.48-0.41-0.78v-1.32c0-0.3,0.18-0.44,0.41-0.31l38.26,22.09
				c0.23,0.13,0.41,0.48,0.41,0.78v1.32C297.08,142.85,296.89,142.99,296.67,142.86z"/>
			<g>
				<g>
					<path class="st59" d="M282.01,149.96l14.17,8.18c0.33,0.19,0.6,0.04,0.6-0.35v-0.89c0-0.39-0.27-0.85-0.6-1.05l-14.17-8.18
						c-0.33-0.19-0.6-0.04-0.6,0.35v0.89C281.4,149.3,281.67,149.77,282.01,149.96z"/>
					<path class="st59" d="M282.01,155.44l14.17,8.18c0.33,0.19,0.6,0.04,0.6-0.35v-0.89c0-0.39-0.27-0.85-0.6-1.05l-14.17-8.18
						c-0.33-0.19-0.6-0.04-0.6,0.35v0.89C281.4,154.77,281.67,155.24,282.01,155.44z"/>
					<path class="st59" d="M282.01,160.86l14.17,8.18c0.33,0.19,0.6,0.04,0.6-0.35v-0.89c0-0.39-0.27-0.85-0.6-1.05l-14.17-8.18
						c-0.33-0.19-0.6-0.04-0.6,0.35v0.89C281.4,160.2,281.67,160.67,282.01,160.86z"/>
					<path class="st59" d="M276.92,147.46l1.61,0.93c0.31,0.18,0.56-0.01,0.56-0.43v-1.66c0-0.41-0.25-0.9-0.56-1.08l-1.61-0.93
						c-0.31-0.18-0.56,0.01-0.56,0.43v1.66C276.35,146.8,276.61,147.28,276.92,147.46z"/>
					<path class="st59" d="M276.92,152.93l1.61,0.93c0.31,0.18,0.56-0.01,0.56-0.43v-1.66c0-0.41-0.25-0.9-0.56-1.08l-1.61-0.93
						c-0.31-0.18-0.56,0.01-0.56,0.43v1.66C276.35,152.27,276.61,152.76,276.92,152.93z"/>
					<path class="st59" d="M276.92,158.36l1.61,0.93c0.31,0.18,0.56-0.01,0.56-0.43v-1.66c0-0.41-0.25-0.9-0.56-1.08l-1.61-0.93
						c-0.31-0.18-0.56,0.01-0.56,0.43v1.66C276.35,157.7,276.61,158.18,276.92,158.36z"/>
				</g>
				<g>
					<path class="st59" d="M265.05,135.41v8.56l5.24-3.02C268.94,138.63,267.1,136.61,265.05,135.41"/>
					<path class="st59" d="M270.12,142.37l-4.91,2.83l3.31,8.95c2.15-0.13,3.61-1.93,3.61-4.97
						C272.13,146.98,271.36,144.54,270.12,142.37"/>
					<path class="st59" d="M264.32,136.76c-3.77-2.15-6.82-0.38-6.82,3.99c0,0.94,0.15,1.92,0.41,2.9l0,0
						c0,0.01,0.01,0.02,0.01,0.02c0.01,0.03,0.02,0.07,0.03,0.1l0.01,0c1.02,3.49,3.52,7.09,6.4,8.75c1.17,0.68,2.27,0.97,3.24,0.93
						l-3.26-8.81V136.76z"/>
				</g>
			</g>
			<g>
				<path class="st59" d="M333.82,173.2v18.79c0,0.93-0.57,1.36-1.27,0.96l-30.47-17.59c-0.7-0.4-1.27-1.49-1.27-2.43v-18.79
					c0-0.93,0.57-1.36,1.27-0.96l30.47,17.59C333.25,171.17,333.82,172.27,333.82,173.2z"/>
				<path class="st66" d="M333.82,184.46v7.53c0,0.93-0.57,1.36-1.27,0.96l-30.47-17.59c-0.7-0.4-1.27-1.49-1.27-2.43v-2.32
					l7.9-3.29l7.26,10.86l10.59-4.92L333.82,184.46z"/>
				<path class="st66" d="M319.08,171.25c0,1.66-1.17,2.34-2.61,1.51c-1.44-0.83-2.61-2.85-2.61-4.52c0-1.66,1.17-2.34,2.61-1.51
					C317.92,167.56,319.08,169.59,319.08,171.25z"/>
			</g>
			<g>
				<path class="st59" d="M333.82,148.28v18.79c0,0.93-0.57,1.36-1.27,0.96l-30.47-17.59c-0.7-0.4-1.27-1.49-1.27-2.43v-18.79
					c0-0.93,0.57-1.36,1.27-0.96l30.47,17.59C333.25,146.25,333.82,147.35,333.82,148.28z"/>
				<path class="st66" d="M333.82,159.54v7.53c0,0.93-0.57,1.36-1.27,0.96l-30.47-17.59c-0.7-0.4-1.27-1.49-1.27-2.43v-2.32
					l7.9-3.29l7.26,10.86l10.59-4.92L333.82,159.54z"/>
				<path class="st66" d="M319.08,146.33c0,1.66-1.17,2.34-2.61,1.51c-1.44-0.83-2.61-2.85-2.61-4.52c0-1.66,1.17-2.34,2.61-1.51
					S319.08,144.67,319.08,146.33z"/>
			</g>
		</g>
		<g>
			
				<linearGradient id="SVGID_12_" gradientUnits="userSpaceOnUse" x1="407.1107" y1="68.0487" x2="533.2552" y2="133.0391" gradientTransform="matrix(-1 0 0 1 801.005 0)">
				<stop  offset="0" style="stop-color:#19072D"/>
				<stop  offset="1" style="stop-color:#4095DE"/>
			</linearGradient>
			<path class="st73" d="M341.4,51.96c-2.35-1.6-6.37,0.23-6.02,2.1l1.6,28.86c0,2.69,1.64,5.82,3.65,6.98l33.39,19.28l3.85,12.48
				l1.99-9.11l3.95,4.38c1.6,1.03,5.54,0.38,5.54-3.77V88.99c0-2.55-1.47-5.52-2.95-6.52L341.4,51.96z"/>
			<g>
				
					<linearGradient id="SVGID_13_" gradientUnits="userSpaceOnUse" x1="512.8822" y1="127.0204" x2="422.4666" y2="74.71" gradientTransform="matrix(-1 0 0 1 801.005 0)">
					<stop  offset="0" style="stop-color:#19072D"/>
					<stop  offset="1" style="stop-color:#4095DE"/>
				</linearGradient>
				<path class="st74" d="M339.01,52.64c-2.12-1.44-3.93-0.24-3.93,2.59v28.7c0,2.69,1.64,5.82,3.65,6.98l33.39,19.28l5.74,11.48
					l0.1-8.11l5.84,3.37c2.02,1.16,3.65-0.07,3.65-2.76V90c0-2.55-1.47-5.52-3.38-6.81L339.01,52.64z"/>
			</g>
			<g>
				<path class="st59" d="M375.53,95.65l-10,0.22v-1.91c0-0.16,0.04-0.28,0.1-0.37c0.07-0.09,0.19-0.13,0.36-0.13l5.8-0.04
					c0.17,0,0.36,0.02,0.55,0.05c0.19,0.03,0.4,0.09,0.61,0.16c-0.21-0.18-0.42-0.37-0.61-0.56c-0.19-0.19-0.38-0.38-0.55-0.59
					l-5.8-6.75c-0.17-0.2-0.29-0.38-0.36-0.55c-0.07-0.16-0.1-0.33-0.1-0.5v-1.9l10,11.76V95.65z"/>
				<path class="st59" d="M354.6,71.08l0.97,0.56c0.28,0.16,0.53,0.39,0.74,0.68c0.21,0.29,0.37,0.62,0.48,1.01l7.77,26.82
					l-0.97-0.56c-0.25-0.14-0.49-0.37-0.73-0.68c-0.24-0.31-0.42-0.67-0.54-1.09L354.6,71.08z"/>
				<path class="st59" d="M343.62,77.23v-1.1l9.99-0.22v1.9c0,0.17-0.04,0.3-0.1,0.38c-0.07,0.08-0.19,0.13-0.36,0.13l-5.8,0.05
					c-0.17,0.01-0.35,0-0.54-0.03c-0.19-0.03-0.38-0.08-0.6-0.15c0.22,0.18,0.42,0.36,0.6,0.54c0.19,0.19,0.36,0.38,0.54,0.58
					l5.8,6.74c0.17,0.2,0.29,0.38,0.36,0.55c0.07,0.17,0.1,0.33,0.1,0.49V89L343.62,77.23z"/>
			</g>
		</g>
		<g>
			<g>
				<linearGradient id="SVGID_14_" gradientUnits="userSpaceOnUse" x1="219.8749" y1="62.933" x2="264.9437" y2="38.5767">
					<stop  offset="0" style="stop-color:#4095DE"/>
					<stop  offset="1" style="stop-color:#19072D"/>
				</linearGradient>
				<path class="st75" d="M250.07,27.84c7.08,4.09,12.56,14.04,12.83,22.21c0.12,3.75-1.19,7.29-3.15,8.76l-0.31,7.41l-4.13-7.05
					c-1.6-0.1-3.37-0.65-5.24-1.72c-7.08-4.09-12.82-14.03-12.82-22.21c0-2.94-0.05-4.94,1.23-6.51
					C240.76,25.95,245.54,25.22,250.07,27.84z"/>
				<g>
					<linearGradient id="SVGID_15_" gradientUnits="userSpaceOnUse" x1="249.0965" y1="27.0698" x2="247.754" y2="74.8233">
						<stop  offset="0" style="stop-color:#4095DE"/>
						<stop  offset="1" style="stop-color:#19072D"/>
					</linearGradient>
					<path class="st76" d="M248.64,28.45c7.08,4.09,12.83,14.03,12.83,22.21c0,3.72-1.2,6.42-3.16,7.89l1.13,7.68l-5.56-6.44
						c-1.6-0.1-3.37-0.65-5.24-1.72c-7.08-4.09-12.82-14.03-12.82-22.21C235.82,27.67,241.56,24.36,248.64,28.45z"/>
				</g>
			</g>
			<g>
				<path class="st59" d="M246.79,36.37c-0.31-0.18-0.55-0.2-0.72-0.07c-0.17,0.13-0.25,0.39-0.25,0.79c0,0.27,0.01,0.54,0.04,0.8
					c0.03,0.26,0.06,0.52,0.09,0.78c0.03,0.26,0.06,0.51,0.09,0.75c0.03,0.25,0.04,0.49,0.04,0.72c0,0.18-0.02,0.34-0.07,0.47
					c-0.05,0.14-0.11,0.25-0.2,0.33c-0.08,0.08-0.19,0.14-0.31,0.16c-0.12,0.03-0.25,0.02-0.4-0.02c0.3,0.27,0.53,0.59,0.71,0.96
					c0.18,0.37,0.27,0.74,0.27,1.11c0,0.23-0.01,0.46-0.04,0.67c-0.03,0.22-0.06,0.43-0.09,0.65c-0.03,0.22-0.06,0.45-0.09,0.68
					c-0.03,0.23-0.04,0.48-0.04,0.75c0,0.39,0.08,0.75,0.25,1.08c0.17,0.32,0.41,0.58,0.72,0.76l0.09,0.05
					c0.06,0.03,0.12,0.1,0.19,0.19c0.07,0.09,0.1,0.2,0.1,0.31V49l-0.34-0.19c-0.38-0.22-0.7-0.46-0.98-0.74
					c-0.28-0.28-0.51-0.57-0.69-0.89s-0.32-0.65-0.41-1c-0.09-0.35-0.14-0.7-0.14-1.05c0-0.24,0.02-0.47,0.05-0.69
					c0.03-0.22,0.06-0.43,0.1-0.65c0.04-0.21,0.07-0.43,0.1-0.64c0.03-0.22,0.05-0.44,0.05-0.67c0-0.31-0.07-0.59-0.2-0.86
					c-0.13-0.27-0.34-0.48-0.61-0.64v-0.93c0.27,0.16,0.48,0.18,0.61,0.07c0.13-0.11,0.2-0.32,0.2-0.63c0-0.23-0.02-0.48-0.05-0.73
					c-0.03-0.25-0.06-0.5-0.1-0.76s-0.07-0.51-0.1-0.76c-0.03-0.25-0.05-0.5-0.05-0.75c0-0.36,0.05-0.65,0.14-0.9
					c0.09-0.24,0.23-0.42,0.41-0.52c0.18-0.11,0.41-0.14,0.69-0.1c0.28,0.04,0.6,0.17,0.98,0.39l0.34,0.19v0.71
					c0,0.11-0.04,0.17-0.1,0.18c-0.07,0.01-0.13,0-0.19-0.03L246.79,36.37z"/>
				<path class="st59" d="M253.16,46.15c-0.27-0.16-0.48-0.18-0.61-0.07c-0.13,0.11-0.2,0.32-0.2,0.63c0,0.23,0.02,0.48,0.05,0.73
					c0.03,0.25,0.07,0.5,0.1,0.76c0.04,0.25,0.07,0.51,0.1,0.76c0.03,0.25,0.05,0.5,0.05,0.75c0,0.36-0.05,0.65-0.14,0.9
					c-0.09,0.24-0.23,0.42-0.41,0.52c-0.18,0.11-0.41,0.14-0.69,0.1c-0.28-0.04-0.6-0.17-0.97-0.38l-0.34-0.2v-0.71
					c0-0.11,0.04-0.17,0.11-0.19c0.07-0.01,0.13,0,0.19,0.03l0.09,0.05c0.31,0.18,0.55,0.2,0.72,0.07c0.17-0.13,0.26-0.39,0.26-0.78
					c0-0.27-0.01-0.53-0.04-0.8c-0.03-0.26-0.06-0.52-0.09-0.78c-0.03-0.26-0.06-0.51-0.09-0.76c-0.03-0.25-0.04-0.49-0.04-0.72
					c0-0.37,0.09-0.63,0.27-0.8c0.18-0.17,0.41-0.22,0.71-0.15c-0.15-0.13-0.28-0.28-0.4-0.44c-0.12-0.16-0.22-0.34-0.31-0.52
					c-0.08-0.18-0.15-0.37-0.2-0.56c-0.05-0.19-0.07-0.37-0.07-0.55c0-0.23,0.01-0.46,0.04-0.67c0.03-0.22,0.06-0.43,0.09-0.65
					c0.03-0.22,0.06-0.44,0.09-0.67c0.03-0.23,0.04-0.48,0.04-0.75c0-0.39-0.09-0.75-0.26-1.08c-0.17-0.33-0.41-0.58-0.72-0.76
					l-0.09-0.05c-0.06-0.03-0.12-0.09-0.19-0.19c-0.07-0.09-0.11-0.19-0.11-0.31V37.2l0.34,0.2c0.37,0.21,0.69,0.46,0.97,0.74
					c0.28,0.28,0.51,0.57,0.69,0.89c0.18,0.32,0.32,0.65,0.41,1c0.09,0.35,0.14,0.7,0.14,1.05c0,0.24-0.02,0.47-0.05,0.69
					c-0.03,0.22-0.07,0.43-0.1,0.65c-0.04,0.21-0.07,0.43-0.1,0.64c-0.03,0.22-0.05,0.44-0.05,0.67c0,0.31,0.07,0.59,0.2,0.86
					c0.13,0.27,0.34,0.48,0.61,0.64V46.15z"/>
			</g>
		</g>
		<g>
			<g>
				<g>
					<g>
						<linearGradient id="SVGID_16_" gradientUnits="userSpaceOnUse" x1="414.781" y1="160.4433" x2="362.3004" y2="202.8928">
							<stop  offset="0" style="stop-color:#FFFFFF"/>
							<stop  offset="0.283" style="stop-color:#DEDCDB"/>
							<stop  offset="0.9093" style="stop-color:#8B8480"/>
							<stop  offset="1" style="stop-color:#7E7772"/>
						</linearGradient>
						<path class="st77" d="M399.11,155.66c-8.36,0.17-17.25-4.02-17.25-4.02s-1.14,0.19-3.35,1.53c0,0,4.43,18.49,6.59,26.57
							c3.42,12.75,10.66,26.12,10.66,26.12s13.26,0.79,17.35-9.95c2.46-6.47,3.24-24.35,3.24-24.35S407.47,165.48,399.11,155.66z"/>
					</g>
					<g>
						<linearGradient id="SVGID_17_" gradientUnits="userSpaceOnUse" x1="400.004" y1="152.3829" x2="381.9713" y2="223.6786">
							<stop  offset="0" style="stop-color:#4095DE"/>
							<stop  offset="1" style="stop-color:#19072D"/>
						</linearGradient>
						<path class="st78" d="M395.77,157.18c-8.36,0.17-17.25-4.02-17.25-4.02s0.74,18.75,3.24,28.1c3.42,12.75,14,24.6,14,24.6
							s10.59,0.38,14-8.43c2.51-6.46,3.24-24.35,3.24-24.35S404.13,167,395.77,157.18z"/>
						<g>
							<polygon class="st59" points="393.49,184.81 386.76,173.88 389.43,172.02 393.8,179.13 404.25,176.67 406.54,181.75 							
								"/>
						</g>
					</g>
				</g>
			</g>
			<g>
				<path class="st2" d="M411.34,235.23c-7.72,4.51-20.21,4.56-27.88,0.13c-7.68-4.43-7.65-11.68,0.08-16.19
					c7.72-4.51,20.21-4.56,27.88-0.13C419.1,223.47,419.06,230.72,411.34,235.23z"/>
				<path class="st79" d="M410.91,234.98c-7.48,4.37-19.58,4.42-27.02,0.13c-7.44-4.3-7.41-11.32,0.07-15.68
					c7.48-4.37,19.58-4.42,27.02-0.13C418.43,223.59,418.39,230.61,410.91,234.98z"/>
				<path class="st80" d="M410.48,234.73c-7.24,4.23-18.95,4.28-26.15,0.12c-7.2-4.16-7.17-10.96,0.07-15.18
					c7.24-4.23,18.95-4.28,26.15-0.12C417.75,223.71,417.72,230.5,410.48,234.73z"/>
				<path class="st81" d="M410.05,234.48c-7,4.09-18.32,4.14-25.29,0.12c-6.96-4.02-6.93-10.59,0.07-14.68
					c7-4.09,18.32-4.14,25.29-0.12C417.08,223.82,417.05,230.39,410.05,234.48z"/>
				<path class="st82" d="M409.62,234.23c-6.76,3.95-17.7,4-24.42,0.12c-6.73-3.88-6.7-10.23,0.07-14.18
					c6.76-3.95,17.7-4,24.42-0.12C416.41,223.94,416.38,230.28,409.62,234.23z"/>
				<path class="st83" d="M409.19,233.98c-6.52,3.81-17.07,3.86-23.56,0.11c-6.49-3.75-6.46-9.87,0.06-13.68
					c6.52-3.81,17.07-3.86,23.56-0.11C415.74,224.05,415.71,230.18,409.19,233.98z"/>
				<path class="st84" d="M408.76,233.73c-6.28,3.67-16.44,3.72-22.69,0.11c-6.25-3.61-6.22-9.51,0.06-13.17
					c6.28-3.67,16.44-3.72,22.69-0.11C415.07,224.17,415.04,230.07,408.76,233.73z"/>
				<path class="st85" d="M408.32,233.48c-6.04,3.53-15.82,3.57-21.83,0.1c-6.01-3.47-5.99-9.14,0.06-12.67
					c6.04-3.53,15.82-3.57,21.83-0.1C414.4,224.28,414.37,229.96,408.32,233.48z"/>
				<path class="st86" d="M407.89,233.24c-5.8,3.39-15.19,3.43-20.96,0.1c-5.77-3.33-5.75-8.78,0.06-12.17
					c5.8-3.39,15.19-3.43,20.96-0.1C413.72,224.4,413.7,229.85,407.89,233.24z"/>
				<path class="st87" d="M407.46,232.99c-5.57,3.25-14.56,3.29-20.1,0.09c-5.54-3.2-5.51-8.42,0.05-11.67
					c5.57-3.25,14.56-3.29,20.1-0.09C413.05,224.51,413.03,229.74,407.46,232.99z"/>
				<path class="st88" d="M407.03,232.74c-5.33,3.11-13.94,3.15-19.23,0.09c-5.3-3.06-5.27-8.06,0.05-11.17
					c5.33-3.11,13.94-3.15,19.23-0.09C412.38,224.63,412.36,229.63,407.03,232.74z"/>
				<path class="st89" d="M406.6,232.49c-5.09,2.97-13.31,3.01-18.37,0.09c-5.06-2.92-5.04-7.69,0.05-10.66
					c5.09-2.97,13.31-3.01,18.37-0.09C411.71,224.75,411.69,229.52,406.6,232.49z"/>
				<path class="st90" d="M406.17,232.24c-4.85,2.83-12.68,2.87-17.5,0.08c-4.82-2.78-4.8-7.33,0.05-10.16
					c4.85-2.83,12.68-2.87,17.5-0.08C411.04,224.86,411.01,229.41,406.17,232.24z"/>
				<path class="st91" d="M405.74,231.99c-4.61,2.69-12.06,2.72-16.64,0.08c-4.58-2.65-4.56-6.97,0.05-9.66
					c4.61-2.69,12.06-2.72,16.64-0.08C410.36,224.98,410.34,229.3,405.74,231.99z"/>
				<path class="st92" d="M405.31,231.74c-4.37,2.55-11.43,2.58-15.77,0.07c-4.34-2.51-4.32-6.61,0.04-9.16
					c4.37-2.55,11.43-2.58,15.77-0.07C409.69,225.09,409.67,229.19,405.31,231.74z"/>
				<path class="st93" d="M404.87,231.49c-4.13,2.41-10.8,2.44-14.91,0.07c-4.11-2.37-4.09-6.25,0.04-8.65
					c4.13-2.41,10.8-2.44,14.91-0.07C409.02,225.21,409,229.08,404.87,231.49z"/>
				<path class="st94" d="M404.44,231.24c-3.89,2.27-10.18,2.3-14.04,0.07c-3.87-2.23-3.85-5.88,0.04-8.15
					c3.89-2.27,10.18-2.3,14.04-0.07C408.35,225.32,408.33,228.97,404.44,231.24z"/>
				<path class="st95" d="M404.01,230.99c-3.65,2.13-9.55,2.16-13.18,0.06c-3.63-2.1-3.61-5.52,0.04-7.65
					c3.65-2.13,9.55-2.16,13.18-0.06C407.68,225.44,407.66,228.86,404.01,230.99z"/>
				<path class="st96" d="M403.58,230.75c-3.41,1.99-8.92,2.02-12.31,0.06c-3.39-1.96-3.38-5.16,0.03-7.15
					c3.41-1.99,8.92-2.02,12.31-0.06C407,225.55,406.99,228.76,403.58,230.75z"/>
				<path class="st97" d="M403.15,230.5c-3.17,1.85-8.3,1.87-11.45,0.05c-3.15-1.82-3.14-4.8,0.03-6.65
					c3.17-1.85,8.3-1.87,11.45-0.05C406.33,225.67,406.32,228.65,403.15,230.5z"/>
				<path class="st98" d="M402.72,230.25c-2.93,1.71-7.67,1.73-10.58,0.05c-2.91-1.68-2.9-4.43,0.03-6.14
					c2.93-1.71,7.67-1.73,10.58-0.05C405.66,225.79,405.65,228.54,402.72,230.25z"/>
				<path class="st99" d="M402.29,230c-2.69,1.57-7.04,1.59-9.72,0.05c-2.68-1.55-2.66-4.07,0.03-5.64
					c2.69-1.57,7.04-1.59,9.72-0.05C404.99,225.9,404.98,228.43,402.29,230z"/>
				<path class="st100" d="M401.85,229.75c-2.45,1.43-6.42,1.45-8.85,0.04c-2.44-1.41-2.43-3.71,0.02-5.14
					c2.45-1.43,6.42-1.45,8.85-0.04C404.32,226.02,404.31,228.32,401.85,229.75z"/>
				<path class="st101" d="M401.42,229.5c-2.21,1.29-5.79,1.31-7.99,0.04c-2.2-1.27-2.19-3.35,0.02-4.64
					c2.21-1.29,5.79-1.31,7.99-0.04C403.65,226.13,403.64,228.21,401.42,229.5z"/>
				<path class="st102" d="M400.99,229.25c-1.97,1.15-5.16,1.17-7.12,0.03c-1.96-1.13-1.95-2.98,0.02-4.14
					c1.97-1.15,5.16-1.17,7.12-0.03C402.97,226.25,402.97,228.1,400.99,229.25z"/>
				<path class="st103" d="M400.56,229c-1.73,1.01-4.54,1.02-6.26,0.03c-1.72-1-1.72-2.62,0.02-3.63c1.73-1.01,4.54-1.02,6.26-0.03
					C402.3,226.36,402.29,227.99,400.56,229z"/>
				<path class="st104" d="M400.13,228.75c-1.49,0.87-3.91,0.88-5.39,0.03c-1.49-0.86-1.48-2.26,0.01-3.13
					c1.49-0.87,3.91-0.88,5.39-0.03C401.63,226.48,401.62,227.88,400.13,228.75z"/>
				<path class="st105" d="M399.7,228.5c-1.25,0.73-3.28,0.74-4.53,0.02c-1.25-0.72-1.24-1.9,0.01-2.63
					c1.25-0.73,3.28-0.74,4.53-0.02C400.96,226.59,400.95,227.77,399.7,228.5z"/>
				<path class="st106" d="M399.27,228.26c-1.01,0.59-2.66,0.6-3.66,0.02c-1.01-0.58-1-1.54,0.01-2.13c1.01-0.59,2.66-0.6,3.66-0.02
					C400.29,226.71,400.28,227.66,399.27,228.26z"/>
				<path class="st107" d="M398.84,228.01c-0.78,0.45-2.03,0.46-2.8,0.01c-0.77-0.45-0.77-1.17,0.01-1.63
					c0.78-0.45,2.03-0.46,2.8-0.01C399.61,226.83,399.61,227.55,398.84,228.01z"/>
				<path class="st108" d="M398.4,227.76c-0.54,0.31-1.4,0.32-1.93,0.01c-0.53-0.31-0.53-0.81,0.01-1.12
					c0.54-0.31,1.4-0.32,1.93-0.01C398.94,226.94,398.94,227.44,398.4,227.76z"/>
				<path class="st53" d="M397.97,227.51c-0.3,0.17-0.78,0.18-1.07,0.01c-0.29-0.17-0.29-0.45,0-0.62c0.3-0.17,0.78-0.18,1.07-0.01
					C398.27,227.06,398.27,227.34,397.97,227.51z"/>
			</g>
		</g>
		<g>
			<g>
				<g class="st109">
					
						<linearGradient id="SVGID_18_" gradientUnits="userSpaceOnUse" x1="1141.0793" y1="118.3815" x2="1166.7428" y2="193.6915" gradientTransform="matrix(-1 0 0 1 1338.2119 0)">
						<stop  offset="0" style="stop-color:#FFFFFF"/>
						<stop  offset="1" style="stop-color:#231F20"/>
					</linearGradient>
					<path class="st110" d="M186.72,146.29C186.72,146.29,186.72,146.29,186.72,146.29c0.03-0.06,0.04-0.13,0.04-0.22l0.01-2.85
						l3.49-2.03l-0.01,2.85c0,0,0,0,0,0c0,0.01,0,0.02,0,0.03c0,0.01,0,0.02,0,0.03c0,0.01,0,0.02,0,0.03c0,0.01,0,0.02,0,0.03
						c0,0.01,0,0.02-0.01,0.03c0,0.01,0,0.02-0.01,0.03c0,0.01-0.01,0.02-0.01,0.03c0,0.01-0.01,0.02-0.01,0.03c0,0,0,0,0,0
						c0,0,0,0,0,0c-0.01,0.01-0.01,0.03-0.02,0.04c-0.03,0.04-0.06,0.07-0.09,0.09l-3.49,2.03
						C186.65,146.4,186.69,146.35,186.72,146.29z"/>
					
						<linearGradient id="SVGID_19_" gradientUnits="userSpaceOnUse" x1="1159.3448" y1="112.1572" x2="1185.0081" y2="187.4665" gradientTransform="matrix(-1 0 0 1 1338.2119 0)">
						<stop  offset="0" style="stop-color:#FFFFFF"/>
						<stop  offset="1" style="stop-color:#231F20"/>
					</linearGradient>
					<path class="st111" d="M172.63,121.89c-0.07-0.01-0.12,0.01-0.17,0.03l3.49-2.03c0.01-0.01,0.03-0.01,0.04-0.02
						c0.01,0,0.02-0.01,0.04-0.01c0.01,0,0.02,0,0.03,0c0.01,0,0.02,0,0.03,0c0.01,0,0.02,0,0.03,0c0,0,0.01,0,0.01,0c0,0,0,0,0,0
						c0,0,0.01,0,0.01,0c0.01,0,0.02,0,0.02,0c0.01,0,0.02,0,0.02,0.01c0.01,0,0.01,0,0.02,0.01c0.01,0,0.01,0,0.02,0.01
						c0.01,0,0.01,0.01,0.02,0.01c0.01,0,0.01,0.01,0.02,0.01c0.01,0,0.01,0.01,0.02,0.01c0.01,0,0.02,0.01,0.02,0.01
						c0.01,0,0.01,0.01,0.02,0.01l2.48,1.43l-3.49,2.03l-2.48-1.43C172.77,121.92,172.7,121.9,172.63,121.89
						C172.63,121.89,172.63,121.89,172.63,121.89z"/>
					<g>
						
							<linearGradient id="SVGID_20_" gradientUnits="userSpaceOnUse" x1="1152.7952" y1="114.3891" x2="1178.4587" y2="189.6997" gradientTransform="matrix(-1 0 0 1 1338.2119 0)">
							<stop  offset="0" style="stop-color:#FFFFFF"/>
							<stop  offset="1" style="stop-color:#231F20"/>
						</linearGradient>
						<polygon class="st112" points="180,126.23 183.49,124.21 183.41,124.32 179.92,126.35 						"/>
					</g>
					<g>
						
							<linearGradient id="SVGID_21_" gradientUnits="userSpaceOnUse" x1="1152.7448" y1="114.4065" x2="1178.4077" y2="189.7153" gradientTransform="matrix(-1 0 0 1 1338.2119 0)">
							<stop  offset="0" style="stop-color:#FFFFFF"/>
							<stop  offset="1" style="stop-color:#231F20"/>
						</linearGradient>
						<polygon class="st113" points="180.13,126.09 183.62,124.06 183.49,124.21 180,126.23 						"/>
					</g>
					<g class="st109">
						<defs>
							<path id="SVGID_22_" class="st109" d="M180.35,125.84l3.49-2.03c-0.08,0.07-0.16,0.15-0.22,0.25l-3.49,2.03
								C180.19,125.99,180.26,125.91,180.35,125.84z"/>
						</defs>
						
							<linearGradient id="SVGID_23_" gradientUnits="userSpaceOnUse" x1="1152.6481" y1="114.4392" x2="1178.3116" y2="189.7497" gradientTransform="matrix(-1 0 0 1 1338.2119 0)">
							<stop  offset="0" style="stop-color:#FFFFFF"/>
							<stop  offset="1" style="stop-color:#231F20"/>
						</linearGradient>
						<use xlink:href="#SVGID_22_"  style="overflow:visible;fill:url(#SVGID_23_);"/>
						<clipPath id="SVGID_24_">
							<use xlink:href="#SVGID_22_"  style="overflow:visible;"/>
						</clipPath>
						<g class="st114">
							
								<linearGradient id="SVGID_25_" gradientUnits="userSpaceOnUse" x1="1152.6481" y1="114.4392" x2="1178.3116" y2="189.7497" gradientTransform="matrix(-1 0 0 1 1338.2119 0)">
								<stop  offset="0" style="stop-color:#FFFFFF"/>
								<stop  offset="1" style="stop-color:#231F20"/>
							</linearGradient>
							<path class="st115" d="M180.35,125.84l3.49-2.03c-0.08,0.07-0.16,0.15-0.22,0.25l-3.49,2.03
								C180.19,125.99,180.26,125.91,180.35,125.84"/>
						</g>
					</g>
					<g>
						
							<linearGradient id="SVGID_26_" gradientUnits="userSpaceOnUse" x1="1152.5574" y1="114.4701" x2="1178.2209" y2="189.7805" gradientTransform="matrix(-1 0 0 1 1338.2119 0)">
							<stop  offset="0" style="stop-color:#FFFFFF"/>
							<stop  offset="1" style="stop-color:#231F20"/>
						</linearGradient>
						<polygon class="st116" points="180.44,125.75 183.93,123.72 183.84,123.81 180.35,125.84 						"/>
					</g>
					<g class="st109">
						<defs>
							<path id="SVGID_27_" class="st109" d="M180.77,125.51l3.49-2.03c-0.12,0.07-0.23,0.15-0.33,0.24l-3.49,2.03
								C180.54,125.66,180.65,125.58,180.77,125.51z"/>
						</defs>
						
							<linearGradient id="SVGID_28_" gradientUnits="userSpaceOnUse" x1="1152.4177" y1="114.5179" x2="1178.0808" y2="189.827" gradientTransform="matrix(-1 0 0 1 1338.2119 0)">
							<stop  offset="0" style="stop-color:#FFFFFF"/>
							<stop  offset="1" style="stop-color:#231F20"/>
						</linearGradient>
						<use xlink:href="#SVGID_27_"  style="overflow:visible;fill:url(#SVGID_28_);"/>
						<clipPath id="SVGID_29_">
							<use xlink:href="#SVGID_27_"  style="overflow:visible;"/>
						</clipPath>
						<g class="st117">
							
								<linearGradient id="SVGID_30_" gradientUnits="userSpaceOnUse" x1="1152.4177" y1="114.5179" x2="1178.0808" y2="189.827" gradientTransform="matrix(-1 0 0 1 1338.2119 0)">
								<stop  offset="0" style="stop-color:#FFFFFF"/>
								<stop  offset="1" style="stop-color:#231F20"/>
							</linearGradient>
							<path class="st118" d="M180.77,125.51l3.49-2.03c-0.12,0.07-0.23,0.15-0.33,0.24l-3.49,2.03
								C180.54,125.66,180.65,125.58,180.77,125.51"/>
						</g>
					</g>
					
						<linearGradient id="SVGID_31_" gradientUnits="userSpaceOnUse" x1="1149.0922" y1="115.6509" x2="1174.7557" y2="190.9612" gradientTransform="matrix(-1 0 0 1 1338.2119 0)">
						<stop  offset="0" style="stop-color:#FFFFFF"/>
						<stop  offset="1" style="stop-color:#231F20"/>
					</linearGradient>
					<path class="st119" d="M174.37,133l3.49-2.03l1.64-0.93l-0.02-0.11l-0.02-0.15c0,0,0-0.01,0-0.01
						c-0.01-0.04-0.01-0.07-0.02-0.11c-0.01-0.04-0.01-0.08-0.02-0.12c-0.01-0.04-0.01-0.08-0.01-0.12c0-0.04-0.01-0.09-0.01-0.13
						c0,0,0,0,0-0.01l-0.01-0.12c-0.01-0.12-0.01-0.24-0.02-0.36c0-0.06,0-0.11,0-0.16c0,0,0-0.01,0-0.01c0-0.07,0-0.13,0-0.2
						c0-0.1,0.01-0.2,0.02-0.3l0.01-0.1c0-0.01,0-0.02,0-0.03c0-0.04,0.01-0.08,0.01-0.12c0.01-0.04,0.01-0.08,0.02-0.12
						c0.01-0.05,0.02-0.1,0.03-0.15c0,0,0-0.01,0-0.01l0.02-0.12l0.07-0.28l0.04-0.16c0.01-0.02,0.01-0.03,0.02-0.05
						c0.04-0.11,0.08-0.21,0.13-0.31l0.04-0.08l0.14-0.26l3.49-2.03l-0.14,0.26l-0.04,0.08c-0.05,0.11-0.11,0.24-0.15,0.36
						l-0.04,0.16l-0.07,0.28l-0.02,0.12c-0.03,0.14-0.05,0.27-0.06,0.42l-0.01,0.1c-0.01,0.16-0.02,0.33-0.02,0.51
						c0,0.17,0.01,0.34,0.02,0.52l0.01,0.12c0.01,0.16,0.03,0.33,0.06,0.5l0.02,0.15l0.07,0.37l0.04,0.21
						c0.04,0.18,0.09,0.36,0.15,0.53l0.04,0.15l0.14,0.41l0.07,0.2l0.13,0.29c0.06,0.17,0.14,0.33,0.22,0.5l0.09,0.2
						c0.11,0.22,0.23,0.45,0.36,0.66c0,0,0,0.01,0.01,0.01c0.13,0.22,0.26,0.44,0.41,0.65l0.13,0.18c0.1,0.15,0.21,0.3,0.32,0.44
						l0.2,0.26l0.14,0.16l0.28,0.32l0.11,0.11c0.13,0.13,0.25,0.27,0.39,0.39l0.16,0.14l0.28,0.25l0.12,0.09
						c0.13,0.11,0.26,0.21,0.4,0.3l0.09,0.07c0.15,0.1,0.29,0.19,0.44,0.28c0.16,0.09,0.31,0.16,0.44,0.23l0.11,0.05
						c0.13,0.06,0.26,0.12,0.4,0.16l0.12,0.04l0.28,0.08l0.16,0.04c0.13,0.02,0.26,0.04,0.39,0.06l0.09,0.01l0.3,0.01l0.13-0.01
						l0.2-0.03c0.05,0,0.1-0.01,0.15-0.02c0.06-0.01,0.12-0.03,0.17-0.04l0.13-0.04c0.15-0.05,0.29-0.12,0.42-0.2l-3.49,2.03
						c-0.13,0.08-0.27,0.14-0.42,0.2l-0.13,0.04c-0.06,0.01-0.12,0.03-0.17,0.04c-0.01,0-0.02,0.01-0.04,0.01
						c-0.03,0.01-0.06,0.01-0.09,0.01c-0.01,0-0.02,0-0.03,0l-0.2,0.03l-0.13,0.01l-0.3-0.01l-0.09-0.01
						c-0.06-0.01-0.11-0.01-0.17-0.02c-0.07-0.01-0.15-0.02-0.22-0.04l-0.16-0.04l-0.28-0.08l-0.12-0.04
						c-0.03-0.01-0.06-0.02-0.1-0.03c-0.04-0.01-0.08-0.03-0.12-0.04c-0.04-0.02-0.08-0.03-0.11-0.05
						c-0.03-0.01-0.05-0.02-0.08-0.04l-0.11-0.05c-0.03-0.01-0.05-0.03-0.08-0.04c-0.08-0.04-0.16-0.08-0.24-0.12
						c-0.04-0.02-0.08-0.04-0.12-0.07c-0.01-0.01-0.02-0.01-0.03-0.02c-0.06-0.03-0.12-0.07-0.18-0.11
						c-0.08-0.05-0.16-0.1-0.24-0.15l-0.09-0.07c-0.01-0.01-0.03-0.02-0.04-0.03c-0.04-0.03-0.08-0.05-0.11-0.08
						c-0.04-0.03-0.07-0.05-0.11-0.08c-0.03-0.03-0.07-0.05-0.1-0.08c-0.01-0.01-0.02-0.02-0.03-0.03l-0.12-0.09l-0.28-0.25
						l-0.16-0.14c-0.02-0.02-0.03-0.03-0.05-0.05c-0.05-0.04-0.09-0.09-0.13-0.13c-0.07-0.07-0.14-0.14-0.21-0.22l-0.11-0.11
						l-0.28-0.32l-0.14-0.16l-0.2-0.26c-0.02-0.03-0.04-0.06-0.06-0.09c-0.08-0.11-0.17-0.24-0.25-0.35l-0.13-0.18
						c-0.14-0.21-0.28-0.43-0.4-0.65c0,0,0,0,0,0c0-0.01-0.01-0.01-0.01-0.02c-0.07-0.11-0.13-0.23-0.19-0.35
						c-0.04-0.08-0.08-0.15-0.12-0.23c-0.01-0.03-0.03-0.06-0.04-0.08l-0.09-0.2c-0.02-0.04-0.04-0.09-0.06-0.13
						c-0.02-0.04-0.04-0.08-0.05-0.11c-0.01-0.03-0.03-0.07-0.04-0.1c-0.01-0.03-0.03-0.06-0.04-0.09
						c-0.01-0.02-0.02-0.04-0.02-0.06l-0.13-0.29l-0.07-0.2l-0.14-0.41l-0.04-0.15c-0.03-0.09-0.06-0.19-0.08-0.28
						c-0.02-0.06-0.03-0.11-0.04-0.17c-0.01-0.03-0.01-0.05-0.02-0.08l-0.04-0.21l-0.05-0.26l-3.37,1.96L174.37,133z"/>
					
						<linearGradient id="SVGID_32_" gradientUnits="userSpaceOnUse" x1="1135.6594" y1="120.2283" x2="1161.323" y2="195.5388" gradientTransform="matrix(-1 0 0 1 1338.2119 0)">
						<stop  offset="0" style="stop-color:#FFFFFF"/>
						<stop  offset="1" style="stop-color:#231F20"/>
					</linearGradient>
					<path class="st120" d="M194.28,144.94C194.28,144.94,194.28,144.94,194.28,144.94c0-0.08-0.01-0.17-0.04-0.26l0,0
						c-0.03-0.09-0.07-0.19-0.12-0.28l-1.74-3.02l3.49-2.03l1.74,3.02c0.01,0.01,0.02,0.03,0.02,0.04c0.01,0.01,0.01,0.02,0.02,0.04
						c0,0.01,0.01,0.02,0.01,0.03c0,0.01,0.01,0.02,0.01,0.03c0,0.01,0.01,0.02,0.01,0.03c0,0.01,0.01,0.02,0.01,0.03
						c0,0.01,0.01,0.02,0.01,0.03c0,0.01,0.01,0.02,0.01,0.03c0,0.01,0.01,0.02,0.01,0.03c0,0,0,0,0,0.01c0,0,0,0,0,0
						c0,0.01,0,0.01,0.01,0.02c0,0.01,0.01,0.02,0.01,0.03c0,0.01,0,0.02,0.01,0.03c0,0.01,0,0.02,0.01,0.03c0,0.01,0,0.02,0,0.03
						c0,0.01,0,0.02,0,0.03c0,0.01,0,0.02,0,0.03c0,0.01,0,0.02,0,0.03c0,0.01,0,0.02,0,0.03c0,0.01,0,0.01,0,0.01c0,0,0,0,0,0
						c0,0,0,0.01,0,0.01c0,0.01,0,0.02,0,0.03c0,0.01,0,0.02,0,0.03c0,0.01,0,0.02,0,0.03c0,0.01,0,0.02,0,0.03
						c0,0.01,0,0.02-0.01,0.03c0,0.01,0,0.02-0.01,0.03c0,0.01-0.01,0.02-0.01,0.03c0,0.01,0,0.01-0.01,0.02c0,0,0,0,0,0
						c0,0,0,0.01,0,0.01c-0.01,0.01-0.01,0.02-0.02,0.04c-0.02,0.04-0.05,0.07-0.09,0.09l-3.49,2.03c0.05-0.03,0.09-0.08,0.12-0.14
						c0,0,0,0,0,0C194.26,145.09,194.28,145.02,194.28,144.94z"/>
					
						<linearGradient id="SVGID_33_" gradientUnits="userSpaceOnUse" x1="1157.726" y1="112.7089" x2="1183.389" y2="188.0179" gradientTransform="matrix(-1 0 0 1 1338.2119 0)">
						<stop  offset="0" style="stop-color:#FFFFFF"/>
						<stop  offset="1" style="stop-color:#231F20"/>
					</linearGradient>
					<path class="st121" d="M174.41,117.66l3.49-2.03l2.81-1.59l0.02-0.01c0.01-0.01,0.03-0.02,0.05-0.02
						c0.01,0,0.02-0.01,0.04-0.01c0.01,0,0.02,0,0.03,0c0.01,0,0.02,0,0.03,0c0.01,0,0.02,0,0.03,0c0,0,0.01,0,0.01,0c0,0,0,0,0,0
						c0,0,0.01,0,0.01,0c0.01,0,0.02,0,0.02,0c0.01,0,0.01,0,0.02,0c0.01,0,0.01,0,0.02,0.01c0.01,0,0.01,0,0.02,0.01
						c0.01,0,0.01,0.01,0.02,0.01c0.01,0,0.01,0.01,0.02,0.01c0.01,0,0.01,0.01,0.02,0.01c0.01,0,0.01,0.01,0.02,0.01
						c0.01,0,0.01,0.01,0.02,0.01c0,0,0,0,0.01,0c0.01,0,0.01,0.01,0.02,0.01c0.01,0,0.01,0.01,0.02,0.01
						c0.01,0.01,0.02,0.01,0.02,0.02c0.01,0.01,0.02,0.01,0.02,0.02c0.01,0.01,0.02,0.01,0.02,0.02c0.01,0.01,0.02,0.01,0.02,0.02
						c0.01,0.01,0.02,0.01,0.02,0.02c0.01,0.01,0.01,0.01,0.02,0.02c0.01,0.01,0.01,0.01,0.02,0.02c0,0,0,0,0,0c0,0,0,0,0.01,0.01
						c0.01,0.01,0.01,0.02,0.02,0.02c0.01,0.01,0.01,0.02,0.02,0.02c0.01,0.01,0.01,0.02,0.02,0.03c0.01,0.01,0.02,0.02,0.02,0.03
						c0.01,0.01,0.02,0.03,0.03,0.04c0.02,0.02,0.03,0.05,0.05,0.07c0,0.01,0.01,0.01,0.01,0.02l1.75,3.03l-3.49,2.03L178,116.5
						c-0.05-0.09-0.11-0.18-0.18-0.25c0,0,0,0,0,0c-0.07-0.07-0.13-0.13-0.2-0.17c-0.07-0.04-0.14-0.06-0.2-0.07c0,0,0,0,0,0
						c-0.06-0.01-0.12,0-0.18,0.03l-0.01,0L174.41,117.66z"/>
					
						<linearGradient id="SVGID_34_" gradientUnits="userSpaceOnUse" x1="1136.9723" y1="119.7812" x2="1162.6356" y2="195.0908" gradientTransform="matrix(-1 0 0 1 1338.2119 0)">
						<stop  offset="0" style="stop-color:#FFFFFF"/>
						<stop  offset="1" style="stop-color:#231F20"/>
					</linearGradient>
					<path class="st122" d="M192.55,141.1c0.08-0.13,0.15-0.26,0.22-0.4c0.02-0.04,0.04-0.08,0.06-0.12
						c0.06-0.13,0.12-0.26,0.17-0.4c0.01-0.03,0.03-0.07,0.04-0.1c0.05-0.14,0.1-0.28,0.14-0.42c0.01-0.03,0.02-0.06,0.03-0.1
						l3.49-2.03c0,0,0,0,0,0.01c-0.01,0.03-0.02,0.06-0.03,0.1c-0.04,0.14-0.09,0.28-0.14,0.41c0,0,0,0.01,0,0.01
						c-0.01,0.03-0.03,0.06-0.04,0.1c-0.05,0.13-0.11,0.27-0.16,0.39c-0.01,0.01-0.01,0.02-0.02,0.04
						c-0.01,0.03-0.03,0.06-0.05,0.09c-0.07,0.14-0.14,0.27-0.22,0.4c-0.02,0.03-0.03,0.06-0.04,0.08c-0.04,0.07-0.09,0.13-0.13,0.2
						l-3.49,2.03C192.43,141.29,192.49,141.19,192.55,141.1z"/>
					
						<linearGradient id="SVGID_35_" gradientUnits="userSpaceOnUse" x1="1154.1167" y1="113.9388" x2="1179.78" y2="189.2485" gradientTransform="matrix(-1 0 0 1 1338.2119 0)">
						<stop  offset="0" style="stop-color:#FFFFFF"/>
						<stop  offset="1" style="stop-color:#231F20"/>
					</linearGradient>
					<path class="st123" d="M181.28,119.63c-0.05-0.01-0.09-0.02-0.14-0.02c-0.11-0.02-0.22-0.03-0.33-0.05
						c-0.05-0.01-0.1-0.01-0.16-0.02c-0.11-0.01-0.21-0.02-0.32-0.02c-0.05,0-0.09,0-0.14,0c-0.15,0-0.3,0-0.44,0.01l3.49-2.03
						c0.13-0.01,0.26-0.02,0.39-0.02c0.02,0,0.04,0,0.05,0c0.05,0,0.09,0,0.14,0c0.07,0,0.13,0,0.2,0.01c0.04,0,0.08,0.01,0.12,0.01
						c0.05,0,0.1,0.01,0.16,0.02c0.04,0,0.08,0.01,0.13,0.01c0.07,0.01,0.14,0.02,0.21,0.03c0.05,0.01,0.09,0.01,0.14,0.02
						c0.02,0,0.04,0.01,0.06,0.01c0.14,0.03,0.27,0.06,0.41,0.09c0,0,0.01,0,0.01,0l-3.49,2.03c0,0,0,0,0,0v0
						C181.6,119.69,181.44,119.66,181.28,119.63z"/>
					
						<linearGradient id="SVGID_36_" gradientUnits="userSpaceOnUse" x1="1146.5358" y1="116.522" x2="1172.1996" y2="191.8334" gradientTransform="matrix(-1 0 0 1 1338.2119 0)">
						<stop  offset="0" style="stop-color:#FFFFFF"/>
						<stop  offset="1" style="stop-color:#231F20"/>
					</linearGradient>
					<path class="st124" d="M187.82,123.63c-0.32-0.34-0.65-0.66-0.99-0.97l3.49-2.03c0.14,0.13,0.28,0.25,0.41,0.39
						c0.13,0.13,0.27,0.26,0.4,0.4c0.06,0.06,0.12,0.13,0.18,0.19c0.02,0.02,0.04,0.05,0.06,0.07c0.04,0.04,0.08,0.08,0.12,0.12
						c0.11,0.12,0.22,0.24,0.33,0.37c0.1,0.12,0.21,0.24,0.31,0.36c0.06,0.07,0.12,0.15,0.18,0.22l-3.49,2.03
						c-0.3-0.37-0.62-0.73-0.94-1.07C187.87,123.67,187.84,123.65,187.82,123.63z"/>
					
						<linearGradient id="SVGID_37_" gradientUnits="userSpaceOnUse" x1="1138.108" y1="119.3941" x2="1163.7714" y2="194.7037" gradientTransform="matrix(-1 0 0 1 1338.2119 0)">
						<stop  offset="0" style="stop-color:#FFFFFF"/>
						<stop  offset="1" style="stop-color:#231F20"/>
					</linearGradient>
					<path class="st125" d="M192.86,132.31c-0.13-0.45-0.29-0.91-0.46-1.36l3.49-2.03c0,0,0,0,0,0l0,0
						c0.05,0.12,0.09,0.23,0.13,0.35c0.05,0.14,0.1,0.28,0.14,0.42c0.05,0.15,0.1,0.3,0.14,0.44c0.01,0.05,0.03,0.1,0.04,0.15
						c0.01,0.02,0.01,0.05,0.02,0.07c0.02,0.09,0.05,0.17,0.07,0.26c0.05,0.17,0.09,0.33,0.13,0.5c0.04,0.17,0.08,0.35,0.12,0.52
						c0.01,0.03,0.01,0.05,0.02,0.08l2.48,1.43l-3.49,2.03l-2.48-1.43c-0.1-0.45-0.21-0.9-0.34-1.35
						C192.87,132.36,192.87,132.33,192.86,132.31z"/>
					
						<linearGradient id="SVGID_38_" gradientUnits="userSpaceOnUse" x1="1151.7045" y1="114.7608" x2="1177.3679" y2="190.071" gradientTransform="matrix(-1 0 0 1 1338.2119 0)">
						<stop  offset="0" style="stop-color:#FFFFFF"/>
						<stop  offset="1" style="stop-color:#231F20"/>
					</linearGradient>
					<path class="st126" d="M182.1,116.5c-0.07-0.01-0.12,0.01-0.17,0.03l3.49-2.03c0.01-0.01,0.03-0.01,0.04-0.02
						c0.01,0,0.02-0.01,0.04-0.01c0.01,0,0.02,0,0.03,0c0.01,0,0.02,0,0.03,0c0.01,0,0.02,0,0.03,0c0,0,0.01,0,0.01,0c0,0,0,0,0,0
						c0,0,0.01,0,0.01,0c0.01,0,0.02,0,0.02,0c0.01,0,0.02,0,0.02,0c0.01,0,0.02,0,0.02,0.01c0.01,0,0.01,0,0.02,0.01
						c0.01,0,0.01,0.01,0.02,0.01c0.01,0,0.01,0.01,0.02,0.01c0.01,0,0.02,0.01,0.02,0.01c0.01,0,0.02,0.01,0.02,0.01
						c0.01,0,0.01,0.01,0.02,0.01l3.97,2.29l-3.49,2.03l-3.97-2.29C182.24,116.53,182.17,116.5,182.1,116.5
						C182.1,116.5,182.1,116.5,182.1,116.5z"/>
					
						<linearGradient id="SVGID_39_" gradientUnits="userSpaceOnUse" x1="1134.8904" y1="120.4907" x2="1160.5537" y2="195.8001" gradientTransform="matrix(-1 0 0 1 1338.2119 0)">
						<stop  offset="0" style="stop-color:#FFFFFF"/>
						<stop  offset="1" style="stop-color:#231F20"/>
					</linearGradient>
					<path class="st127" d="M196.19,140.9C196.19,140.9,196.19,140.89,196.19,140.9c0.03-0.06,0.04-0.13,0.04-0.22l0.01-4.56
						c0-0.09-0.01-0.18-0.04-0.27c0,0,0,0,0,0c-0.03-0.09-0.07-0.18-0.12-0.26c0,0,0,0,0,0c-0.05-0.08-0.11-0.16-0.17-0.23
						c0,0,0,0,0,0c-0.07-0.07-0.14-0.13-0.21-0.17l3.49-2.03c0,0,0,0,0.01,0c0.01,0,0.02,0.01,0.02,0.01
						c0.01,0.01,0.02,0.01,0.02,0.02c0.01,0.01,0.02,0.01,0.02,0.02c0.01,0.01,0.02,0.01,0.02,0.02c0.01,0.01,0.02,0.01,0.02,0.02
						c0.01,0.01,0.02,0.01,0.02,0.02c0.01,0.01,0.02,0.01,0.02,0.02c0.01,0.01,0.02,0.02,0.02,0.02c0.01,0.01,0.01,0.01,0.02,0.02
						c0,0,0,0,0,0c0,0,0,0,0.01,0.01c0.01,0.01,0.01,0.02,0.02,0.02c0.01,0.01,0.01,0.02,0.02,0.02c0.01,0.01,0.01,0.02,0.02,0.03
						c0.01,0.01,0.02,0.02,0.02,0.03c0.01,0.02,0.02,0.03,0.03,0.05c0.01,0.02,0.03,0.04,0.04,0.06c0,0,0,0.01,0,0.01c0,0,0,0,0,0
						c0.01,0.01,0.01,0.02,0.02,0.04c0.01,0.01,0.01,0.02,0.02,0.03c0,0.01,0.01,0.02,0.01,0.03c0,0.01,0.01,0.02,0.01,0.03
						c0,0.01,0.01,0.02,0.01,0.03c0,0.01,0.01,0.02,0.01,0.03c0,0.01,0.01,0.02,0.01,0.03c0,0.01,0.01,0.02,0.01,0.03
						c0,0.01,0.01,0.02,0.01,0.03c0,0,0,0,0,0.01c0,0,0,0,0,0c0,0.01,0,0.01,0.01,0.02c0,0.01,0.01,0.02,0.01,0.03
						c0,0.01,0,0.02,0.01,0.03c0,0.01,0,0.02,0.01,0.03c0,0.01,0,0.02,0,0.03c0,0.01,0,0.02,0,0.03c0,0.01,0,0.02,0,0.03
						c0,0.01,0,0.02,0,0.03c0,0.01,0,0.02,0,0.03c0,0.01,0,0.02,0,0.03l-0.01,4.56c0,0,0,0,0,0c0,0.01,0,0.02,0,0.03
						c0,0.01,0,0.02,0,0.03c0,0.01,0,0.02,0,0.03c0,0.01,0,0.02,0,0.03c0,0.01,0,0.02-0.01,0.03c0,0.01,0,0.02-0.01,0.03
						c0,0.01-0.01,0.02-0.01,0.03c0,0.01-0.01,0.02-0.01,0.03c0,0,0,0,0,0c0,0,0,0,0,0c-0.01,0.01-0.01,0.03-0.02,0.04
						c-0.03,0.04-0.06,0.07-0.09,0.09l-3.49,2.03c0,0,0,0,0,0l0,0C196.12,141,196.16,140.96,196.19,140.9z"/>
					
						<linearGradient id="SVGID_40_" gradientUnits="userSpaceOnUse" x1="1148.5737" y1="115.8277" x2="1174.2373" y2="191.1379" gradientTransform="matrix(-1 0 0 1 1338.2119 0)">
						<stop  offset="0" style="stop-color:#FFFFFF"/>
						<stop  offset="1" style="stop-color:#231F20"/>
					</linearGradient>
					<path class="st128" d="M186.79,119.54C186.79,119.54,186.79,119.54,186.79,119.54c-0.03-0.09-0.07-0.18-0.12-0.27c0,0,0,0,0,0
						c-0.05-0.08-0.11-0.16-0.17-0.23c0,0,0,0,0,0c-0.07-0.07-0.14-0.13-0.21-0.17l3.49-2.03c0,0,0,0,0.01,0
						c0.01,0,0.02,0.01,0.02,0.01c0.01,0.01,0.02,0.01,0.02,0.02c0.01,0.01,0.02,0.01,0.02,0.02c0.01,0.01,0.02,0.01,0.02,0.02
						c0.01,0.01,0.02,0.01,0.02,0.02c0.01,0.01,0.02,0.01,0.02,0.02c0.01,0.01,0.02,0.01,0.02,0.02c0.01,0.01,0.02,0.02,0.02,0.02
						c0,0.01,0.01,0.01,0.01,0.02c0,0,0,0,0,0c0,0,0,0,0.01,0.01c0.01,0.01,0.01,0.02,0.02,0.02c0.01,0.01,0.01,0.02,0.02,0.02
						c0.01,0.01,0.01,0.02,0.02,0.03c0.01,0.01,0.02,0.02,0.02,0.03c0.01,0.02,0.02,0.03,0.03,0.05c0.01,0.02,0.03,0.04,0.04,0.06
						c0,0,0,0.01,0,0.01c0,0,0,0,0,0c0.01,0.01,0.01,0.02,0.02,0.04c0.01,0.01,0.01,0.02,0.02,0.03c0,0.01,0.01,0.02,0.01,0.03
						c0,0.01,0.01,0.02,0.01,0.03c0,0.01,0.01,0.02,0.01,0.03c0,0.01,0.01,0.02,0.01,0.03c0,0.01,0.01,0.02,0.01,0.03
						c0,0.01,0.01,0.02,0.01,0.03c0,0.01,0.01,0.02,0.01,0.03c0,0,0,0.01,0,0.01c0,0,0,0,0,0c0,0.01,0,0.01,0.01,0.02
						c0,0.01,0.01,0.02,0.01,0.03c0,0.01,0,0.02,0.01,0.03c0,0.01,0,0.02,0.01,0.03c0,0.01,0,0.02,0,0.03c0,0.01,0,0.02,0,0.03
						c0,0.01,0,0.02,0,0.03c0,0.01,0,0.02,0,0.03c0,0.01,0,0.02,0,0.03c0,0.01,0,0.02,0,0.03l-0.01,2.85l-3.49,2.03l0.01-2.85
						C186.84,119.72,186.82,119.63,186.79,119.54z"/>
					<g>
						
							<linearGradient id="SVGID_41_" gradientUnits="userSpaceOnUse" x1="1144.6842" y1="117.1531" x2="1170.3478" y2="192.4637" gradientTransform="matrix(-1 0 0 1 1338.2119 0)">
							<stop  offset="0" style="stop-color:#FFFFFF"/>
							<stop  offset="1" style="stop-color:#231F20"/>
						</linearGradient>
						<polygon class="st129" points="188.83,124.77 192.32,122.74 194.07,121.74 190.58,123.77 						"/>
					</g>
					
						<linearGradient id="SVGID_42_" gradientUnits="userSpaceOnUse" x1="1141.4714" y1="118.2478" x2="1167.1351" y2="193.5583" gradientTransform="matrix(-1 0 0 1 1338.2119 0)">
						<stop  offset="0" style="stop-color:#FFFFFF"/>
						<stop  offset="1" style="stop-color:#231F20"/>
					</linearGradient>
					<path class="st130" d="M190.97,123.8c-0.07-0.04-0.14-0.06-0.21-0.07c0,0,0,0,0,0c-0.07-0.01-0.13,0.01-0.18,0.04l3.49-2.03
						c0.02-0.01,0.03-0.02,0.05-0.02c0.01,0,0.03-0.01,0.04-0.01c0.01,0,0.02,0,0.03,0c0.01,0,0.02,0,0.03,0c0.01,0,0.02,0,0.03,0
						c0,0,0.01,0,0.01,0c0,0,0,0,0,0c0,0,0.01,0,0.01,0c0.01,0,0.02,0,0.02,0c0.01,0,0.02,0,0.02,0.01c0.01,0,0.01,0,0.02,0.01
						c0.01,0,0.01,0,0.02,0.01c0.01,0,0.01,0.01,0.02,0.01c0.01,0,0.01,0.01,0.02,0.01c0.01,0,0.01,0.01,0.02,0.01
						c0.01,0,0.01,0.01,0.02,0.01c0.01,0,0.01,0.01,0.02,0.01c0,0,0,0,0.01,0c0.01,0,0.01,0.01,0.02,0.01
						c0.01,0,0.01,0.01,0.02,0.01c0.01,0.01,0.02,0.01,0.02,0.02c0.01,0.01,0.02,0.01,0.02,0.02c0.01,0.01,0.02,0.01,0.02,0.02
						c0.01,0.01,0.02,0.01,0.02,0.02c0.01,0.01,0.02,0.01,0.02,0.02c0.01,0.01,0.02,0.02,0.02,0.02c0,0.01,0.01,0.01,0.01,0.02
						c0,0,0,0,0,0c0,0,0,0,0.01,0.01c0.01,0.01,0.01,0.02,0.02,0.02c0.01,0.01,0.01,0.02,0.02,0.02c0.01,0.01,0.01,0.02,0.02,0.03
						c0.01,0.01,0.02,0.02,0.02,0.03c0.01,0.02,0.02,0.03,0.03,0.05c0.02,0.03,0.04,0.05,0.05,0.08c0,0,0,0,0,0.01l2.79,4.84
						c0,0,0,0.01,0,0.01c0.01,0.02,0.02,0.03,0.03,0.05c0.01,0.01,0.01,0.02,0.02,0.03c0,0.01,0.01,0.02,0.01,0.03
						c0,0.01,0.01,0.02,0.01,0.03c0,0.01,0.01,0.02,0.01,0.03c0,0.01,0.01,0.02,0.01,0.03c0,0.01,0.01,0.02,0.01,0.03
						c0,0.01,0.01,0.02,0.01,0.03c0,0.01,0.01,0.02,0.01,0.03c0,0,0,0,0,0.01c0,0,0,0,0,0c0,0.01,0,0.01,0.01,0.02
						c0,0.01,0.01,0.02,0.01,0.03c0,0.01,0,0.02,0.01,0.03c0,0.01,0,0.02,0.01,0.03c0,0.01,0,0.02,0,0.03c0,0.01,0,0.02,0,0.03
						c0,0.01,0,0.02,0,0.03c0,0.01,0,0.02,0,0.03s0,0.02,0,0.03c0,0.01,0,0.02,0,0.03c0,0.01,0,0.02,0,0.03c0,0.01,0,0.02,0,0.03
						c0,0.01,0,0.02,0,0.03c0,0.01,0,0.02,0,0.03c0,0.01,0,0.02-0.01,0.03c0,0.01,0,0.02-0.01,0.03c0,0.01-0.01,0.02-0.01,0.03
						c0,0.01-0.01,0.02-0.01,0.03c0,0,0,0,0,0c0,0,0,0,0,0.01c-0.01,0.01-0.01,0.03-0.02,0.04c-0.03,0.04-0.06,0.07-0.1,0.1
						l-3.49,2.03c0,0,0,0,0,0l0,0c0,0,0,0,0,0c0.05-0.03,0.1-0.08,0.12-0.14c0,0,0,0,0,0c0.08-0.18,0.04-0.48-0.12-0.75l-2.79-4.84
						c-0.05-0.1-0.12-0.18-0.18-0.25c0,0,0,0,0,0C191.11,123.9,191.04,123.84,190.97,123.8z"/>
					<g>
						<linearGradient id="SVGID_43_" gradientUnits="userSpaceOnUse" x1="189.0319" y1="115.6387" x2="177.522" y2="153.8748">
							<stop  offset="0" style="stop-color:#4095DE"/>
							<stop  offset="1" style="stop-color:#19072D"/>
						</linearGradient>
						<path class="st131" d="M195.7,135.16c0.31,0.18,0.55,0.59,0.55,0.95l-0.01,4.56c0,0.35-0.24,0.49-0.55,0.31l-2.48-1.43
							c-0.2,0.7-0.48,1.31-0.84,1.82l1.74,3.02c0.22,0.38,0.22,0.78,0,0.9l-2.81,1.61c-0.11,0.06-0.25,0.04-0.39-0.04
							c-0.14-0.08-0.28-0.22-0.39-0.41l-1.74-3.02c-0.62,0.04-1.3-0.03-2-0.21l-0.01,2.85c0,0.35-0.24,0.49-0.55,0.31l-3.97-2.29
							c-0.31-0.18-0.55-0.59-0.55-0.95l0.01-2.85c-0.71-0.64-1.38-1.34-2-2.1l-1.77,0.99c-0.11,0.06-0.25,0.04-0.39-0.04
							c-0.14-0.08-0.28-0.22-0.38-0.4l-2.8-4.86c-0.21-0.36-0.21-0.76,0-0.9l1.75-1c-0.35-0.92-0.62-1.85-0.82-2.78l-2.48-1.43
							c-0.31-0.18-0.55-0.59-0.55-0.95l0.01-4.56c0-0.35,0.24-0.49,0.55-0.31l2.48,1.43c0.2-0.7,0.48-1.31,0.83-1.83l-1.74-3.02
							c-0.21-0.38-0.21-0.78,0-0.9l2.82-1.6c0.11-0.07,0.25-0.05,0.39,0.03c0.14,0.08,0.28,0.22,0.38,0.41l1.75,3.03
							c0.62-0.05,1.3,0.02,2,0.2l0.01-2.85c0-0.35,0.24-0.49,0.55-0.31l3.97,2.29c0.31,0.18,0.55,0.59,0.55,0.95l-0.01,2.85
							c0.71,0.64,1.38,1.34,2,2.11l1.75-1c0.11-0.06,0.25-0.05,0.39,0.03c0.14,0.08,0.28,0.22,0.39,0.42l2.79,4.84
							c0.22,0.37,0.22,0.77,0,0.9l-1.75,1c0.36,0.92,0.63,1.85,0.83,2.78L195.7,135.16z M189.15,134.81
							c0.01-0.16,0.02-0.33,0.02-0.5c0-0.18-0.01-0.36-0.02-0.53l-0.01-0.12c-0.02-0.17-0.03-0.32-0.06-0.5l-0.02-0.15l-0.07-0.37
							l-0.05-0.21c-0.04-0.17-0.08-0.35-0.14-0.53l-0.04-0.13l-0.15-0.42l-0.07-0.19l-0.12-0.3c-0.07-0.18-0.15-0.34-0.22-0.5
							l-0.09-0.2c-0.23-0.46-0.48-0.9-0.77-1.33l-0.13-0.18c-0.11-0.15-0.21-0.29-0.33-0.44l-0.2-0.25l-0.13-0.16l-0.29-0.34
							l-0.09-0.1c-0.13-0.13-0.26-0.27-0.39-0.39l-0.16-0.14l-0.28-0.25l-0.12-0.09c-0.14-0.12-0.27-0.22-0.4-0.3l-0.09-0.07
							c-0.15-0.1-0.29-0.19-0.45-0.29c-0.15-0.09-0.3-0.16-0.44-0.23l-0.09-0.04c-0.14-0.07-0.27-0.12-0.4-0.16l-0.12-0.04
							l-0.28-0.08l-0.16-0.04c-0.14-0.03-0.26-0.04-0.39-0.06l-0.11-0.01l-0.28,0.01l-0.14,0.01l-0.2,0.02
							c-0.11,0.02-0.21,0.05-0.32,0.07l-0.13,0.04c-0.29,0.1-0.55,0.24-0.77,0.44l-0.1,0.09c-0.08,0.07-0.16,0.15-0.22,0.25
							l-0.13,0.14l-0.07,0.11l-0.14,0.26l-0.04,0.08c-0.05,0.11-0.11,0.24-0.15,0.36l-0.04,0.16l-0.07,0.28l-0.02,0.12
							c-0.03,0.14-0.05,0.27-0.06,0.42l-0.01,0.1c-0.01,0.16-0.02,0.33-0.02,0.51c0,0.17,0.01,0.35,0.02,0.52l0.01,0.12
							c0.01,0.16,0.03,0.33,0.06,0.5l0.02,0.15l0.07,0.37l0.04,0.21c0.04,0.18,0.09,0.36,0.15,0.53l0.04,0.15l0.14,0.41l0.07,0.2
							l0.13,0.29c0.06,0.17,0.14,0.33,0.22,0.5l0.09,0.2c0.22,0.45,0.48,0.9,0.77,1.33l0.13,0.18c0.11,0.15,0.21,0.3,0.32,0.44
							l0.2,0.26l0.14,0.16l0.28,0.32l0.11,0.11c0.13,0.13,0.25,0.27,0.39,0.39l0.16,0.14l0.28,0.25l0.12,0.09
							c0.13,0.11,0.26,0.21,0.4,0.3l0.09,0.07c0.15,0.1,0.29,0.19,0.44,0.28c0.16,0.09,0.31,0.16,0.44,0.23l0.11,0.05
							c0.13,0.06,0.26,0.12,0.4,0.16l0.12,0.04l0.28,0.08l0.16,0.04c0.13,0.02,0.26,0.04,0.39,0.06l0.09,0.01l0.3,0.01l0.13-0.01
							l0.2-0.03c0.12-0.01,0.22-0.04,0.33-0.07l0.13-0.04c0.29-0.1,0.54-0.25,0.77-0.44l0.1-0.09c0.07-0.08,0.15-0.16,0.22-0.25
							l0.12-0.15l0.07-0.11l0.15-0.24l0.04-0.1c0.05-0.11,0.1-0.24,0.14-0.37l0.05-0.15l0.07-0.28l0.02-0.12
							c0.03-0.13,0.04-0.28,0.06-0.42L189.15,134.81"/>
					</g>
				</g>
			</g>
			<g>
				<path class="st2" d="M197.21,167.38c-5.92,3.46-15.5,3.5-21.39,0.1c-5.89-3.4-5.86-8.96,0.06-12.42
					c5.92-3.46,15.5-3.5,21.39-0.1C203.15,158.36,203.13,163.92,197.21,167.38z"/>
				<path class="st79" d="M196.87,167.19c-5.74,3.35-15.02,3.39-20.72,0.1c-5.71-3.29-5.68-8.68,0.06-12.03
					c5.74-3.35,15.02-3.39,20.72-0.1C202.64,158.45,202.61,163.84,196.87,167.19z"/>
				<path class="st80" d="M196.54,166.99c-5.55,3.24-14.53,3.28-20.06,0.09c-5.52-3.19-5.5-8.4,0.05-11.64
					c5.55-3.24,14.53-3.28,20.06-0.09C202.12,158.54,202.1,163.75,196.54,166.99z"/>
				<path class="st81" d="M196.21,166.8c-5.37,3.13-14.05,3.17-19.39,0.09c-5.34-3.08-5.32-8.12,0.05-11.26
					c5.37-3.13,14.05-3.17,19.39-0.09C201.6,158.63,201.58,163.67,196.21,166.8z"/>
				<path class="st82" d="M195.88,166.61c-5.19,3.03-13.57,3.07-18.73,0.09c-5.16-2.98-5.13-7.85,0.05-10.87
					c5.19-3.03,13.57-3.07,18.73-0.09C201.09,158.72,201.07,163.59,195.88,166.61z"/>
				<path class="st83" d="M195.55,166.42c-5,2.92-13.09,2.96-18.06,0.09c-4.97-2.87-4.95-7.57,0.05-10.49
					c5-2.92,13.09-2.96,18.06-0.09C200.57,158.81,200.55,163.5,195.55,166.42z"/>
				<path class="st84" d="M195.22,166.23c-4.82,2.81-12.61,2.85-17.4,0.08c-4.79-2.77-4.77-7.29,0.05-10.1
					c4.82-2.81,12.61-2.85,17.4-0.08C200.06,158.9,200.03,163.42,195.22,166.23z"/>
				<path class="st85" d="M194.89,166.04c-4.63,2.7-12.13,2.74-16.73,0.08c-4.61-2.66-4.59-7.01,0.05-9.71
					c4.63-2.7,12.13-2.74,16.73-0.08C199.54,158.98,199.52,163.33,194.89,166.04z"/>
				<path class="st86" d="M194.55,165.85c-4.45,2.6-11.64,2.63-16.07,0.08c-4.43-2.55-4.41-6.73,0.04-9.33
					c4.45-2.6,11.64-2.63,16.07-0.08C199.02,159.07,199,163.25,194.55,165.85z"/>
				<path class="st87" d="M194.22,165.65c-4.27,2.49-11.16,2.52-15.4,0.07c-4.24-2.45-4.22-6.45,0.04-8.94
					c4.27-2.49,11.16-2.52,15.4-0.07C198.51,159.16,198.49,163.17,194.22,165.65z"/>
				<path class="st88" d="M193.89,165.46c-4.08,2.38-10.68,2.41-14.74,0.07c-4.06-2.34-4.04-6.17,0.04-8.56
					c4.08-2.38,10.68-2.41,14.74-0.07C197.99,159.25,197.97,163.08,193.89,165.46z"/>
				<path class="st89" d="M193.56,165.27c-3.9,2.27-10.2,2.3-14.07,0.07c-3.88-2.24-3.86-5.9,0.04-8.17
					c3.9-2.27,10.2-2.3,14.07-0.07C197.47,159.34,197.46,163,193.56,165.27z"/>
				<path class="st90" d="M193.23,165.08c-3.71,2.17-9.72,2.2-13.41,0.06c-3.69-2.13-3.68-5.62,0.04-7.78
					c3.71-2.17,9.72-2.2,13.41-0.06C196.96,159.43,196.94,162.91,193.23,165.08z"/>
				<path class="st91" d="M192.9,164.89c-3.53,2.06-9.24,2.09-12.74,0.06c-3.51-2.03-3.49-5.34,0.03-7.4
					c3.53-2.06,9.24-2.09,12.74-0.06C196.44,159.52,196.43,162.83,192.9,164.89z"/>
				<path class="st92" d="M192.57,164.7c-3.34,1.95-8.75,1.98-12.08,0.06c-3.33-1.92-3.31-5.06,0.03-7.01
					c3.34-1.95,8.75-1.98,12.08-0.06C195.92,159.61,195.91,162.75,192.57,164.7z"/>
				<path class="st93" d="M192.23,164.51c-3.16,1.84-8.27,1.87-11.42,0.05c-3.14-1.81-3.13-4.78,0.03-6.63
					c3.16-1.84,8.27-1.87,11.42-0.05C195.41,159.69,195.39,162.66,192.23,164.51z"/>
				<path class="st94" d="M191.9,164.32c-2.98,1.74-7.79,1.76-10.75,0.05c-2.96-1.71-2.95-4.5,0.03-6.24
					c2.98-1.74,7.79-1.76,10.75-0.05C194.89,159.78,194.88,162.58,191.9,164.32z"/>
				<path class="st95" d="M191.57,164.12c-2.79,1.63-7.31,1.65-10.09,0.05c-2.78-1.6-2.77-4.22,0.03-5.85
					c2.79-1.63,7.31-1.65,10.09-0.05C194.38,159.87,194.36,162.49,191.57,164.12z"/>
				<path class="st96" d="M191.24,163.93c-2.61,1.52-6.83,1.54-9.42,0.04c-2.59-1.5-2.58-3.95,0.03-5.47
					c2.61-1.52,6.83-1.54,9.42-0.04C193.86,159.96,193.85,162.41,191.24,163.93z"/>
				<path class="st97" d="M190.91,163.74c-2.42,1.41-6.34,1.43-8.76,0.04c-2.41-1.39-2.4-3.67,0.02-5.08
					c2.42-1.41,6.34-1.43,8.76-0.04C193.34,160.05,193.33,162.33,190.91,163.74z"/>
				<path class="st98" d="M190.58,163.55c-2.24,1.31-5.86,1.32-8.09,0.04c-2.23-1.29-2.22-3.39,0.02-4.7
					c2.24-1.31,5.86-1.32,8.09-0.04C192.83,160.14,192.82,162.24,190.58,163.55z"/>
				<path class="st99" d="M190.24,163.36c-2.06,1.2-5.38,1.22-7.43,0.03c-2.05-1.18-2.04-3.11,0.02-4.31
					c2.06-1.2,5.38-1.22,7.43-0.04C192.31,160.23,192.3,162.16,190.24,163.36z"/>
				<path class="st100" d="M189.91,163.17c-1.87,1.09-4.9,1.11-6.76,0.03c-1.86-1.08-1.85-2.83,0.02-3.93
					c1.87-1.09,4.9-1.11,6.76-0.03C191.79,160.32,191.79,162.07,189.91,163.17z"/>
				<path class="st101" d="M189.58,162.98c-1.69,0.99-4.42,1-6.1,0.03c-1.68-0.97-1.67-2.55,0.02-3.54c1.69-0.99,4.42-1,6.1-0.03
					C191.28,160.41,191.27,161.99,189.58,162.98z"/>
				<path class="st102" d="M189.25,162.78c-1.5,0.88-3.94,0.89-5.43,0.03c-1.5-0.86-1.49-2.28,0.01-3.15
					c1.5-0.88,3.94-0.89,5.43-0.03C190.76,160.49,190.75,161.91,189.25,162.78z"/>
				<path class="st103" d="M188.92,162.59c-1.32,0.77-3.45,0.78-4.77,0.02c-1.31-0.76-1.31-2,0.01-2.77
					c1.32-0.77,3.45-0.78,4.77-0.02C190.24,160.58,190.24,161.82,188.92,162.59z"/>
				<path class="st104" d="M188.59,162.4c-1.14,0.66-2.97,0.67-4.1,0.02c-1.13-0.65-1.12-1.72,0.01-2.38
					c1.14-0.66,2.97-0.67,4.1-0.02C189.73,160.67,189.72,161.74,188.59,162.4z"/>
				<path class="st105" d="M188.26,162.21c-0.95,0.56-2.49,0.56-3.44,0.02c-0.95-0.55-0.94-1.44,0.01-2
					c0.95-0.56,2.49-0.56,3.44-0.02C189.21,160.76,189.21,161.65,188.26,162.21z"/>
				<path class="st106" d="M187.92,162.02c-0.77,0.45-2.01,0.45-2.77,0.01c-0.76-0.44-0.76-1.16,0.01-1.61
					c0.77-0.45,2.01-0.45,2.77-0.01C188.7,160.85,188.69,161.57,187.92,162.02z"/>
				<path class="st107" d="M187.59,161.83c-0.58,0.34-1.53,0.35-2.11,0.01c-0.58-0.34-0.58-0.88,0.01-1.22
					c0.58-0.34,1.53-0.35,2.11-0.01C188.18,160.94,188.18,161.49,187.59,161.83z"/>
				<path class="st108" d="M187.26,161.64c-0.4,0.23-1.05,0.24-1.44,0.01c-0.4-0.23-0.4-0.6,0-0.84c0.4-0.23,1.05-0.24,1.44-0.01
					C187.66,161.03,187.66,161.4,187.26,161.64z"/>
				<path class="st53" d="M186.93,161.44c-0.22,0.13-0.56,0.13-0.78,0c-0.21-0.12-0.21-0.33,0-0.45c0.22-0.13,0.56-0.13,0.78,0
					C187.15,161.12,187.15,161.32,186.93,161.44z"/>
			</g>
		</g>
	</g>
</g>
</svg>
